<svg width="34" height="34" viewBox="0 0 34 34" fill="none" xmlns="http://www.w3.org/2000/svg">
<g id="nav donut">
<path id="Subtract" d="M32.6016 16.9062C32.6016 25.4667 25.662 32.4062 17.1016 32.4062V33.4062C26.2143 33.4062 33.6016 26.0189 33.6016 16.9062H32.6016ZM17.1016 1.40625C25.662 1.40625 32.6016 8.34584 32.6016 16.9062H33.6016C33.6016 7.79355 26.2143 0.40625 17.1016 0.40625V1.40625ZM1.60156 16.9062C1.60156 8.34584 8.54115 1.40625 17.1016 1.40625V0.40625C7.98886 0.40625 0.601562 7.79355 0.601562 16.9062H1.60156ZM17.1016 32.4062C8.54115 32.4062 1.60156 25.4667 1.60156 16.9062H0.601562C0.601562 26.0189 7.98886 33.4062 17.1016 33.4062V32.4062ZM21.9349 16.9062C21.9349 19.5756 19.7709 21.7396 17.1016 21.7396V22.7396C20.3232 22.7396 22.9349 20.1279 22.9349 16.9062H21.9349ZM17.1016 12.0729C19.7709 12.0729 21.9349 14.2369 21.9349 16.9062H22.9349C22.9349 13.6846 20.3232 11.0729 17.1016 11.0729V12.0729ZM12.2682 16.9062C12.2682 14.2369 14.4322 12.0729 17.1016 12.0729V11.0729C13.8799 11.0729 11.2682 13.6846 11.2682 16.9062H12.2682ZM17.1016 21.7396C14.4322 21.7396 12.2682 19.5756 12.2682 16.9062H11.2682C11.2682 20.1279 13.8799 22.7396 17.1016 22.7396V21.7396Z" fill="white"/>
<path id="Vector" d="M32.5826 18.7793C31.8813 18.4416 31.1466 18.2556 30.4824 18.0875L30.459 18.0815C30.2537 18.0294 30.0453 17.9746 29.8381 17.9195C29.0881 17.7128 28.5223 17.3113 28.1494 16.7759C27.775 16.2384 27.574 15.5352 27.6101 14.6943L27.6102 14.6917C27.6194 14.4453 27.6381 14.1974 27.6576 13.9384L27.6577 13.9379L27.6604 13.9016C27.717 13.1423 27.7823 12.2667 27.5746 11.4136C26.8842 8.54673 25.1429 6.68612 22.4245 5.95924L22.4226 5.95876C22.2368 5.9098 22.0491 5.86359 21.866 5.8185L21.8639 5.818L21.8639 5.81799L21.8617 5.81745C21.8262 5.80889 21.7909 5.80042 21.7558 5.79199C21.5149 5.73415 21.2837 5.67864 21.0596 5.61059L21.0585 5.61027C19.7103 5.20424 18.8937 4.05942 18.9361 2.56827L18.9362 2.5674C18.9398 2.43292 18.9506 2.3015 18.9628 2.15317C18.9656 2.1202 18.9684 2.08638 18.9712 2.05152C18.9728 2.03127 18.9744 2.01066 18.9762 1.98973C18.9903 1.81565 19.0063 1.6189 19.0088 1.42277C21.5252 1.79104 23.7532 2.68503 25.6396 4.07212C30.5031 7.6494 32.8362 12.5797 32.5826 18.7793Z" fill="white" stroke="white"/>
</g>
</svg>
