<svg width="120" height="120" viewBox="0 0 120 120" fill="none" xmlns="http://www.w3.org/2000/svg">
<g clip-path="url(#clip0_961_171336)">
<path d="M-0.00390625 59.8994C-0.00390625 26.9224 26.9866 -0.0292969 60.0199 -0.0292969C93.1165 -0.0292969 119.996 26.9145 119.996 60.0895C119.996 93.2011 93.069 120.002 59.8456 119.971C26.8203 119.939 -0.00390625 93.019 -0.00390625 59.8994ZM5.13601 60.4062C5.16769 62.5914 5.31816 65.1805 5.69039 67.7458C10.8857 103.613 48.4491 124.737 81.7279 110.295C98.787 102.892 109.265 89.7569 113.66 71.7205C113.914 70.6674 113.708 69.9944 112.829 69.3135C110.936 67.8488 108.829 66.8986 106.54 66.3048C104.561 65.7902 102.533 65.4339 100.616 64.745C94.8905 62.6706 91.5246 58.5059 90.2812 52.5914C89.6318 49.5115 90.3683 46.4315 90.3842 43.3436C90.4317 36.0673 85.9333 29.9865 78.956 27.9913C76.9919 27.4291 74.9723 27.0728 73.0241 26.4632C67.0209 24.5788 63.4412 20.4062 62.0631 14.3492C61.5088 11.8947 61.7543 9.36896 62.0869 6.89865C62.3007 5.35471 61.8018 5.02217 60.3921 5.10134C58.2062 5.22011 56.0125 5.22803 53.8266 5.47347C26.1154 8.60886 5.08849 32.1401 5.13601 60.4062ZM113.842 63.6128C113.914 63.3436 113.969 63.209 113.977 63.0823C115.22 42.6785 107.578 26.4553 90.8831 14.6421C84.1988 9.90736 76.6276 7.19952 68.494 6.08313C67.5436 5.94853 67.2743 6.17023 67.2743 7.10451C67.2743 8.34758 67.0763 9.59065 67.0368 10.8337C66.8863 15.9881 69.872 20.0974 74.8377 21.5305C76.3187 21.958 77.8393 22.251 79.3282 22.6389C87.9132 24.848 93.1244 30.3903 95.2548 38.8939C96.0785 42.1956 95.4845 45.5447 95.334 48.8701C95.0806 54.5313 98.0822 58.7355 103.515 60.1686C107.016 61.0871 110.603 61.6967 113.827 63.6207L113.842 63.6128Z" fill="#291F19"/>
<path d="M113.872 62.7099C113.865 62.8439 113.833 62.9542 113.794 63.0881C113.77 63.1511 113.746 63.2299 113.723 63.3245L113.589 63.8287L113.14 63.5608C110.613 62.0481 107.779 61.3548 105.032 60.6852C104.355 60.5197 103.67 60.3464 102.993 60.1731C97.4592 58.7077 94.3104 54.3587 94.5702 48.5286C94.6016 47.725 94.6646 46.9214 94.7276 46.1178C94.9165 43.6755 95.1133 41.1465 94.4993 38.7199C92.3896 30.282 87.1547 24.9404 78.952 22.8289C78.3616 22.6792 77.7633 22.5374 77.165 22.3956C76.2834 22.1908 75.3623 21.9859 74.4728 21.7259C69.3638 20.2448 66.278 16.014 66.4354 10.6881C66.4512 10.1209 66.5063 9.56151 66.5535 8.99426C66.6086 8.33246 66.6716 7.65491 66.6716 6.99312C66.6716 6.5598 66.7188 6.07921 67.0495 5.78771C67.3801 5.4962 67.8603 5.51984 68.3247 5.58286C76.8108 6.74888 84.3601 9.6403 90.7601 14.1704C107.339 25.9094 115.116 42.2494 113.872 62.7099Z" fill="#291F19"/>
<path d="M5.57822 60.3824C5.53869 32.144 26.519 8.62914 54.1713 5.49594C56.3532 5.25066 58.5429 5.25066 60.7247 5.12407C62.1318 5.04495 62.6299 5.37726 62.4164 6.92012C62.0765 9.3808 61.8314 11.9127 62.3927 14.3654C63.7682 20.4182 67.3413 24.5879 73.3335 26.471C75.2781 27.0802 77.294 27.4363 79.2544 27.9981C86.2189 29.9998 90.709 36.0763 90.6616 43.3397C90.6458 46.4175 89.9106 49.4953 90.5588 52.5811C91.8 58.4914 95.1676 62.6532 100.875 64.7262C102.78 65.4145 104.812 65.7785 106.788 66.2849C109.073 66.8783 111.176 67.8277 113.065 69.2915C113.942 69.9719 114.156 70.6445 113.895 71.6968C109.508 89.7206 99.049 102.855 82.0213 110.245C48.8037 124.669 11.3095 103.559 6.12367 67.7249C5.75213 65.1614 5.60193 62.5741 5.57031 60.3903L5.57822 60.3824Z" fill="#F6ED5B" fill-opacity="0.6"/>
<path d="M90.2021 59.284C91.9684 60.2513 91.9684 62.7884 90.2021 63.7556L45.8263 88.0548C44.1276 88.9849 42.053 87.7557 42.053 85.819L42.053 37.2207C42.053 35.284 44.1276 34.0547 45.8263 34.9849L90.2021 59.284Z" fill="#291F19"/>
</g>
<defs>
<clipPath id="clip0_961_171336">
<rect width="120" height="120" fill="white"/>
</clipPath>
</defs>
</svg>
