<svg xmlns="http://www.w3.org/2000/svg"><metadata>Generated by IcoMoon</metadata><defs><font id="icomoon" horiz-adv-x="1024"><font-face ascent="960" descent="-64" units-per-em="1024"/><glyph horiz-adv-x="512"/><glyph d="M705.872 16.282c-53.518-51.884-111.956-43.692-168.206-19.116-59.531 25.125-114.143 26.214-176.949 0-78.643-33.858-120.149-24.027-167.117 19.116-266.513 274.706-227.191 693.043 75.366 708.335 73.728-3.823 125.064-40.414 168.208-43.69 64.446 13.107 126.157 50.79 194.97 45.875 82.469-6.554 144.728-39.322 185.688-98.304-170.394-102.128-129.982-326.589 26.214-389.393-31.13-81.92-71.545-163.295-138.719-223.367l0.545 0.545zM431.714 727.893c-8.192 121.788 90.657 222.276 204.255 232.107 15.835-140.902-127.795-245.76-204.255-232.107zM705.872 16.282l28.967-28.959-57.475 58.368 28.508-29.409zM537.666-2.834l16.396 37.54-0.471 0.201-15.925-37.741zM360.717-2.834l-15.778 37.802-0.42-0.18 16.198-37.622zM193.6 16.282l-29.398-28.52 0.821-0.848 0.868-0.795 27.709 30.163zM268.966 724.616l2.121 40.905-2.094 0.109-2.094-0.106 2.068-40.908zM437.174 680.926l-3.101-40.842 5.681-0.432 5.583 1.136-8.163 40.138zM632.144 726.801l3.244 40.833-0.324 0.023-2.92-40.856zM817.832 628.497l21.058-35.133 37.569 22.519-24.986 35.978-33.64-23.363zM844.046 239.104l38.285-14.549 14.275 37.56-37.282 14.991-15.278-38.003zM705.327 15.737l-28.967 28.959 56.271-59.49-27.304 30.532zM431.714 727.893l-40.868-2.749 2.149-31.945 31.518-5.628 7.201 40.322zM635.97 960l40.702 4.575-4.461 39.674-39.776-3.442 3.535-40.807zM677.364 45.691c-19.931-19.321-38.601-25.862-56.541-26.726-19.37-0.934-41.345 4.633-66.761 15.737l-32.797-75.067c30.839-13.472 66.208-24.293 103.498-22.495 38.724 1.868 76.030 17.17 109.621 49.734l-57.020 58.819zM553.591 34.906c-69.509 29.331-135.549 30.573-208.651 0.061l31.554-75.6c52.509 21.918 95.697 20.972 145.243 0.061l31.855 75.477zM344.519 34.787c-36.217-15.593-58.156-18.514-73.61-16.368-14.617 2.028-29.32 9.396-49.6 28.025l-55.419-60.326c26.688-24.519 56.222-43.635 93.76-48.841 36.702-5.095 74.838 4.002 117.264 22.266l-32.396 75.244zM222.998 44.802c-125.776 129.642-177.348 291.258-164.367 418.779 6.468 63.541 28.691 116.933 63.563 154.783 34.363 37.298 83.252 62.029 148.84 65.344l-4.135 81.816c-85.692-4.331-155.177-37.627-204.952-91.652-49.266-53.474-76.946-124.705-84.814-201.997-15.691-154.145 46.332-339.050 187.070-484.114l58.796 57.041zM266.845 683.711c30.593-1.586 57.199-9.95 83.627-19.614 23.565-8.617 54.722-21.821 83.601-24.014l6.205 81.685c-14.266 1.083-30.351 7.813-61.673 19.267-28.458 10.406-64.384 22.25-107.519 24.486l-4.242-81.81zM445.338 640.788c35.258 7.171 71.942 21.634 100.364 30.886 30.802 10.027 57.254 16.148 83.526 14.272l5.837 81.712c-42.545 3.038-81.351-7.224-114.721-18.087-35.75-11.638-62.145-22.57-91.333-28.506l16.327-80.276zM628.9 685.97c72.43-5.756 122.499-33.623 155.288-80.836l67.285 46.727c-49.132 70.751-123.58 108.421-216.084 115.772l-6.488-81.662zM796.774 663.63c-202.49-121.364-152.248-388.448 31.99-462.529l30.56 76.005c-128.147 51.528-158.736 233.366-20.435 316.257l-42.115 70.266zM805.757 253.653c-30.417-80.044-67.981-153.948-127.734-207.385l54.608-61.063c74.592 66.707 117.858 155.554 149.701 239.35l-76.575 29.098zM734.294-13.226l0.545 0.549-57.93 57.917-0.549-0.545 57.934-57.922zM472.58 730.642c-6.537 97.239 73.204 180.44 166.92 188.55l-7.066 81.615c-133.476-11.551-251.432-129.327-241.588-275.663l81.734 5.498zM595.263 955.425c6.148-54.702-18.403-104.267-55.308-140.015-18.346-17.769-38.769-31.071-57.766-39.085-19.579-8.26-34.566-9.664-43.274-8.109l-14.402-80.644c29.524-5.272 61.161 1.312 89.518 13.275 28.946 12.21 57.778 31.369 82.919 55.72 50.061 48.493 89.412 121.808 79.72 208.008l-81.408-9.15z" glyph-name="apple" horiz-adv-x="860" unicode=""/><glyph d="M328.597 37.766l219.249 264.388c8.082 9.746 22.536 11.096 32.28 3.014 9.746-8.082 11.096-22.536 3.014-32.282l-248.057-299.126c-15.279-18.426-43.543-18.426-58.823 0l-248.056 299.126c-8.082 9.746-6.733 24.2 3.013 32.282s24.199 6.732 32.281-3.014l219.248-264.388v876.381c0 12.661 10.264 22.925 22.925 22.925s22.925-10.264 22.925-22.925v-876.381zM328.597 37.766l11.765-9.756-27.049-32.617v42.372h15.284zM547.846 302.153v0zM580.127 305.167v0zM583.14 272.885v0zM335.083-26.24v0zM276.26-26.24v0zM28.204 272.885v0zM31.217 305.167v0zM63.498 302.153v0zM282.746 37.766h15.284v-42.372l-27.047 32.617 11.764 9.756zM316.833 47.523l219.248 264.388 23.531-19.513-219.249-264.388-23.529 19.513zM536.081 311.91c13.471 16.243 37.559 18.492 53.803 5.021l-19.513-23.529c-3.249 2.694-8.067 2.245-10.76-1.004l-23.531 19.513zM589.884 316.931c16.243-13.469 18.492-37.558 5.021-53.801l-23.529 19.513c2.694 3.248 2.245 8.065-1.004 10.76l19.513 23.529zM594.904 263.13l-248.056-299.127-23.529 19.513 248.056 299.127 23.529-19.513zM346.849-35.997c-21.391-25.794-60.962-25.794-82.353 0l23.529 19.513c9.167-11.055 26.126-11.055 35.294 0l23.529-19.513zM264.496-35.997l-248.057 299.127 23.529 19.513 248.056-299.127-23.529-19.513zM16.44 263.13c-13.47 16.243-11.222 40.332 5.022 53.801l19.512-23.529c-3.249-2.694-3.698-7.512-1.004-10.76l-23.529-19.513zM21.461 316.931c16.244 13.471 40.332 11.223 53.802-5.021l-23.529-19.513c-2.694 3.249-7.512 3.699-10.76 1.004l-19.512 23.529zM75.263 311.91l219.249-264.388-23.529-19.513-219.249 264.388 23.529 19.513zM298.030 914.147v-876.381h-30.567v876.381h30.567zM305.672 921.788c-4.22 0-7.642-3.421-7.642-7.642h-30.567c0 21.102 17.107 38.209 38.209 38.209v-30.567zM313.313 914.147c0 4.22-3.42 7.642-7.642 7.642v30.567c21.102 0 38.209-17.107 38.209-38.209h-30.567zM313.313 37.766v876.381h30.567v-876.381h-30.567z" glyph-name="arrow-down" horiz-adv-x="611" unicode=""/><glyph d="M328.597 858.234l219.249-264.387c8.082-9.746 22.536-11.096 32.28-3.014 9.746 8.082 11.096 22.536 3.014 32.282l-248.057 299.126c-15.279 18.425-43.543 18.425-58.823 0l-248.056-299.126c-8.082-9.746-6.733-24.2 3.013-32.282s24.199-6.732 32.281 3.014l219.248 264.387v-876.38c0-12.662 10.264-22.925 22.925-22.925s22.925 10.263 22.925 22.925v876.38zM328.597 858.234l11.765 9.756-27.049 32.617v-42.373h15.284zM547.846 593.847v0zM580.127 590.833v0zM583.14 623.115v0zM335.083 922.241v0zM276.26 922.241v0zM28.204 623.115v0zM31.217 590.833v0zM63.498 593.847v0zM282.746 858.234h15.284v42.373l-27.047-32.617 11.764-9.756zM316.833 848.478l219.248-264.388 23.531 19.513-219.249 264.388-23.529-19.512zM536.081 584.090c13.471-16.243 37.559-18.492 53.803-5.021l-19.513 23.529c-3.249-2.694-8.067-2.245-10.76 1.004l-23.531-19.513zM589.884 579.069c16.243 13.469 18.492 37.558 5.021 53.801l-23.529-19.513c2.694-3.248 2.245-8.065-1.004-10.76l19.513-23.529zM594.904 632.87l-248.056 299.127-23.529-19.512 248.056-299.127 23.529 19.513zM346.849 931.997c-21.391 25.795-60.962 25.795-82.353 0l23.529-19.512c9.167 11.055 26.126 11.055 35.294 0l23.529 19.512zM264.496 931.997l-248.057-299.127 23.529-19.513 248.056 299.127-23.529 19.512zM16.44 632.87c-13.47-16.243-11.222-40.332 5.022-53.801l19.512 23.529c-3.249 2.694-3.698 7.512-1.004 10.76l-23.529 19.513zM21.461 579.069c16.244-13.471 40.332-11.223 53.802 5.021l-23.529 19.513c-2.694-3.249-7.512-3.699-10.76-1.004l-19.512-23.529zM75.263 584.090l219.249 264.388-23.529 19.512-219.249-264.388 23.529-19.513zM298.030-18.146v876.38h-30.567v-876.38h30.567zM305.672-25.788c-4.22 0-7.642 3.42-7.642 7.642h-30.567c0-21.104 17.107-38.209 38.209-38.209v30.567zM313.313-18.146c0-4.221-3.42-7.642-7.642-7.642v-30.567c21.102 0 38.209 17.105 38.209 38.209h-30.567zM313.313 858.234v-876.38h30.567v876.38h-30.567z" glyph-name="arrow_up" horiz-adv-x="611" unicode=""/><glyph d="M378.631 13.351c-27.035-27.035-70.867-27.035-97.902 0l-16.032 16.032c-27.014 27.014-27.038 70.806-0.053 97.848l321.065 321.766-321.065 321.765c-26.984 27.044-26.961 70.835 0.053 97.849l16.032 16.032c27.035 27.035 70.867 27.035 97.902 0l435.646-435.646-435.646-435.646z" glyph-name="arrow" unicode=""/><glyph d="M760.487 77.187c1.858-0.311 3.702-0.459 5.522-0.459 16.001 0 30.121 11.552 32.84 27.857l33.333 200.002c3.026 18.159-9.239 35.332-27.401 38.358-18.159 3.038-35.332-9.239-38.358-27.398l-33.333-200.002c-3.026-18.159 9.239-35.336 27.398-38.358zM364.2 104.588c2.718-16.304 16.838-27.86 32.839-27.86 1.82 0 3.664 0.152 5.522 0.463 18.159 3.026 30.424 20.199 27.398 38.358l-33.333 199.999c-3.026 18.163-20.197 30.428-38.359 27.401-18.16-3.026-30.426-20.199-27.4-38.358l33.333-200.002zM1115.963 610.075h-117.312l-256.66 320.822c-11.495 14.371-32.472 16.707-46.85 5.204-14.374-11.5-16.706-32.476-5.203-46.851l223.338-279.175h-665.737l223.342 279.175c11.499 14.375 9.17 35.353-5.203 46.851-14.378 11.502-35.355 9.169-46.854-5.204l-256.658-320.822h-117.313c-18.409 0-33.333-14.925-33.333-33.335v-133.332c0-18.409 14.924-33.333 33.333-33.333h41.524l126.427-442.489c4.087-14.313 17.166-24.178 32.049-24.178h671.113c14.882 0 27.963 9.865 32.051 24.178l126.422 442.489h41.525c18.409 0 33.333 14.924 33.333 33.333v133.332c0 18.41-14.924 33.335-33.333 33.335zM890.819 10.073h-620.825l-114.284 400.001h849.399l-114.29-400.001zM1082.63 476.74c-114.187 0-896.267 0-1004.445 0v66.666h1004.445v-66.666zM580.407 76.739c18.409 0 33.333 14.928 33.333 33.333v200.002c0 18.409-14.924 33.333-33.333 33.333s-33.333-14.924-33.333-33.333v-200.002c0-18.409 14.924-33.333 33.333-33.333z" glyph-name="basket" horiz-adv-x="1176" unicode=""/><glyph d="M158.277 14.976c-22.119-20.489-56.285-20.489-78.404 0l-34.23 31.71c-24.632 22.81-24.653 61.759-0.046 84.601l341.185 316.713-341.185 316.713c-24.607 22.842-24.586 61.789 0.046 84.605l34.23 31.705c22.119 20.488 56.285 20.488 78.404 0l467.5-433.023-467.5-433.024z" glyph-name="caret-right" horiz-adv-x="683" unicode=""/><glyph d="M775.736 264.788c0 13.97-11.109 24.713-25.538 26.863-4.44 1.071-122.16 11.819-195.447-53.726-5.554-4.295-9.995-9.669-14.442-13.97v108.528c41.087 1.071 113.276 8.598 164.355 54.8 73.294 65.545 71.072 179.442 71.072 184.816 0 13.97-11.109 24.709-25.541 26.863-4.437 1.071-122.16 11.819-195.447-53.726-5.551-4.295-9.992-9.669-14.438-13.973v80.589c23.325 22.568 82.181 88.115 82.181 166.552 0 96.703-87.726 171.926-92.172 175.148-11.109 8.597-26.655 8.597-37.755 0-2.225-4.295-91.065-79.51-91.065-176.22 0-78.438 58.855-142.911 82.178-166.55v-80.589c-4.437 5.371-8.884 9.669-14.438 13.97-73.297 65.545-191.007 53.726-195.447 53.726-14.439-1.071-24.431-12.893-25.539-26.863 0-4.295-2.223-118.201 71.073-184.816 51.085-46.201 123.265-53.726 164.352-54.8v-108.522c-4.437 5.374-8.884 9.669-14.438 13.97-73.297 65.545-191.008 53.726-195.448 53.726-14.439-1.071-24.431-12.89-25.54-26.863 0-4.295-2.223-118.201 71.074-184.816 51.085-46.201 123.265-53.726 164.352-54.796v-60.171c0-15.043 12.217-27.937 28.871-27.937 15.546 0 28.871 11.819 28.871 27.937v60.171c41.087 1.071 113.273 8.595 164.355 54.796 73.294 67.69 69.964 181.586 69.964 185.881v0.003zM358.186 427.042c-36.647 32.237-47.749 84.883-51.088 116.047 32.2-1.071 87.725-7.525 124.375-39.753 36.647-32.237 47.746-84.883 51.088-116.047-32.203-0.009-87.729 6.445-124.376 39.753zM358.186 120.807c-36.647 32.237-47.749 84.883-51.088 116.047 32.2-1.071 87.725-7.525 124.375-39.756 36.647-32.237 47.746-84.883 51.088-116.047-32.203 1.074-87.729 7.519-124.376 39.756zM593.613 503.333c36.647 32.237 91.065 38.682 124.376 39.756-3.333-31.158-14.438-83.813-51.088-116.047-36.647-32.237-91.065-38.682-124.376-39.756 3.339 31.164 14.442 83.819 51.088 116.047zM459.245 777.335c0 48.351 32.2 91.338 53.304 114.977 21.101-23.639 54.415-67.696 54.415-114.977s-33.317-92.408-54.415-116.047c-21.104 23.64-53.304 67.696-53.304 116.047zM666.909 120.807c-36.647-32.237-91.065-38.682-124.373-39.756 3.33 31.158 14.438 83.813 51.085 116.047 36.647 32.237 91.068 38.682 124.376 39.756-3.33-31.158-15.546-83.813-51.088-116.047z" glyph-name="cereal" unicode=""/><glyph d="M0.055 445.045c0 281.138 228.742 509.045 510.91 509.045s510.91-227.907 510.91-509.045c0-281.138-228.742-509.045-510.91-509.045s-510.91 227.907-510.91 509.045z" unicode=""/><glyph d="M456.16 283.392c-5.628-5.606-14.731-5.606-20.358 0l-20.162 20.090c-5.653 5.632-5.658 14.784-0.013 20.422l121.598 121.419-121.598 121.417c-5.645 5.638-5.641 14.79 0.013 20.422l20.162 20.090c5.628 5.606 14.731 5.606 20.358 0l162.524-161.929-162.524-161.931z" unicode=""/><glyph d="M1021.82 450.955c0-281.138-228.742-509.045-510.91-509.045s-510.91 227.907-510.91 509.045c0 281.138 228.742 509.045 510.91 509.045s510.91-227.907 510.91-509.045z" unicode=""/><glyph d="M565.737 612.608c5.628 5.606 14.731 5.606 20.358 0l20.162-20.090c5.653-5.632 5.658-14.784 0.011-20.422l-121.598-121.419 121.598-121.417c5.647-5.638 5.643-14.79-0.011-20.422l-20.162-20.090c-5.628-5.606-14.731-5.606-20.358 0l-162.524 161.929 162.524 161.931z" unicode=""/><glyph d="M21.705 486.378c0 249.587 202.33 451.917 451.917 451.917s451.917-202.33 451.917-451.917c0-249.587-202.33-451.917-451.917-451.917s-451.917 202.33-451.917 451.917z" horiz-adv-x="945" unicode=""/><glyph d="M431.876 334.645c-5.199-5.201-13.627-5.201-18.826 0l-18.647 18.645c-5.195 5.195-5.199 13.617-0.010 18.818l112.295 112.54-112.295 112.542c-5.189 5.201-5.185 13.621 0.010 18.816l18.647 18.647c5.199 5.199 13.627 5.199 18.826 0l150.004-150.004-150.004-150.002z" horiz-adv-x="945" unicode=""/><glyph d="M1011.2 448c0-268.631-217.769-486.4-486.4-486.4s-486.4 217.769-486.4 486.4c0 268.631 217.769 486.4 486.4 486.4s486.4-217.769 486.4-486.4z" horiz-adv-x="1050" unicode=""/><glyph d="M568.115 610.762c6.758 6.758 17.718 6.758 24.476 0l16.21-16.21c6.753-6.753 6.758-17.7 0.013-24.461l-119.9-120.161 119.9-120.161c6.746-6.761 6.74-17.71-0.013-24.463l-16.21-16.21c-6.758-6.758-17.718-6.758-24.476 0l-160.832 160.835 160.832 160.832z" horiz-adv-x="1050" unicode=""/><glyph d="M128 448h384v-64h-384v64zM64 608h320v-64h-320v64zM957.418 428.608l-96 224c-2.464 5.757-6.563 10.665-11.792 14.112-5.226 3.447-11.354 5.284-17.616 5.28h-96v64c0 8.487-3.37 16.626-9.373 22.628-6 6.001-14.138 9.372-22.627 9.372h-511.999v-64h479.999v-401.792c-14.579-8.467-27.341-19.738-37.546-33.158-10.205-13.424-17.651-28.736-21.91-45.050h-201.088c-7.789 30.166-26.31 56.454-52.096 73.939s-57.061 24.966-87.967 21.040c-30.906-3.926-59.319-18.989-79.914-42.365s-31.957-53.459-31.957-84.614c0-31.155 11.362-61.238 31.957-84.614s49.008-38.438 79.914-42.365c30.906-3.926 62.181 3.555 87.967 21.040s44.307 43.773 52.096 73.939h201.088c6.963-27.462 22.883-51.821 45.242-69.222 22.362-17.398 49.885-26.845 78.214-26.845 28.333 0 55.856 9.446 78.218 26.845 22.358 17.402 38.278 41.76 45.238 69.222h68.544c8.49 0 16.627 3.373 22.627 9.373 6.003 6 9.373 14.141 9.373 22.627v224c0.003 4.336-0.88 8.624-2.592 12.608zM288.011 128c-12.658 0-25.032 3.754-35.556 10.787-10.524 7.030-18.728 17.027-23.572 28.72-4.844 11.696-6.112 24.563-3.642 36.979 2.469 12.413 8.565 23.818 17.516 32.768s20.354 15.046 32.769 17.517c12.415 2.467 25.283 1.2 36.978-3.642 11.696-4.845 21.69-13.050 28.723-23.574 7.030-10.525 10.784-22.896 10.784-35.555-0.016-16.97-6.765-33.238-18.762-45.235-12-12-28.268-18.749-45.237-18.765zM736.010 608h74.88l68.608-160h-143.488v160zM736.010 128c-12.656 0-25.030 3.754-35.555 10.787-10.525 7.030-18.726 17.027-23.571 28.72-4.845 11.696-6.112 24.563-3.642 36.979 2.467 12.413 8.563 23.818 17.514 32.768s20.355 15.046 32.771 17.517c12.413 2.467 25.28 1.2 36.976-3.642 11.696-4.845 21.69-13.050 28.723-23.574 7.030-10.525 10.784-22.896 10.784-35.555-0.016-16.97-6.765-33.238-18.762-45.235-12-12-28.269-18.749-45.238-18.765zM896.010 224h-36.544c-7.046 27.411-22.992 51.706-45.334 69.078-22.342 17.376-49.818 26.842-78.122 26.922v64h160v-160z" glyph-name="collection-delivery" unicode=""/><glyph d="M439.323 460.591h-12.645v-151.704h-75.851v189.66c-0.026 11.086 3.586 19.813 10.81 27.037 7.226 7.225 15.979 10.858 27.115 10.858h240.2v108.542l146.466-146.468-146.466-146.466v108.54h-189.63zM478.618-18.462l-404.56 404.556c-9.032 9.034-15.639 18.838-20.011 29.415v0c-4.456 10.786-6.627 21.572-6.627 32.442 0 10.907 2.172 21.713 6.627 32.491 4.37 10.574 10.972 20.355 19.996 29.351l404.56 404.557c9.030 9.032 18.834 15.639 29.415 20.011 10.782 4.456 21.568 6.627 32.438 6.627 10.907 0 21.713-2.172 32.491-6.627v0c10.578-4.37 20.359-10.972 29.351-19.996l404.559-404.557c9.030-9.034 15.637-18.838 20.010-29.415 4.456-10.786 6.626-21.572 6.626-32.442 0-10.907-2.173-21.713-6.626-32.491-4.369-10.574-10.972-20.355-19.998-29.351l-0.011-0.015-404.544-404.541c-9.034-9.034-18.834-15.641-29.415-20.014-10.786-4.456-21.572-6.626-32.442-6.626-10.907 0-21.709 2.173-32.491 6.626-10.574 4.373-20.355 10.972-29.347 19.998zM531.517 34.467l8.939-8.939 422.423 422.423-422.423 422.422-422.421-422.422 413.482-413.484z" glyph-name="directions" horiz-adv-x="1062" unicode=""/><glyph d="M505.114 958.615h40.028c278.967 0 505.114-226.147 505.114-505.114s-226.147-505.114-505.114-505.114h-40.028c-278.967 0-505.114 226.147-505.114 505.114s226.147 505.114 505.114 505.114z" glyph-name="Donuts" horiz-adv-x="1050" unicode=""/><glyph d="M600.106 385.654c-11.112-1.984-22.213 5.613-24.117 17.051-17.814 103.659-88.367 248.256-162.827 248.256-66.567 0-134.303-118.568-158.878-228.424-2.536-11.234-13.732-18.375-24.938-15.804-11.262 2.511-18.347 13.687-15.83 24.94 94.13 363.383 326.178 335.699 403.623-21.929 1.957-11.355-5.678-22.141-17.033-24.098v0.008zM114.103 352.889h1099.246c101.497-3.197 101.524-150.71 0-153.907h-96.889l-23.002-196.915c-3.671-31.456-30.314-55.152-61.967-55.152h-252.742c-31.649 0-58.296 23.7-61.967 55.144l-22.998 196.911h-60.151l-22.998-196.911c-3.664-31.448-30.307-55.144-61.96-55.144h-252.741c-31.651 0-58.295 23.7-61.968 55.144l-22.999 196.911h-96.891c-101.479 3.182-101.588 150.767 0.009 153.919h0.019zM758.272 6.925c1.21-10.403 10.031-18.235 20.491-18.235h252.716c10.46 0 19.27 7.832 20.484 18.235l22.429 192.068h-338.565l22.445-192.068zM275.461 6.925c1.212-10.403 10.022-18.235 20.491-18.235h252.718c10.46 0 19.27 7.832 20.48 18.235l22.433 192.068h-338.565l22.443-192.068zM89.54 250.956c6.451-6.592 15.187-10.217 24.556-10.217h115.481c238.923 0.011 629.442-0.008 868.296 0h115.481c19.335 0.011 35.081 15.83 35.081 35.286 0.296 18.421-16.213 35.575-35.093 35.1h-1099.269c-30.179 0.633-47.184-39.325-24.546-60.169h0.014zM370.567 522.255c9.678-6.303 12.417-19.236 6.125-28.9-17.163-26.385-26.224-51.352-26.224-72.15 0-11.541-9.351-20.882-20.883-20.882-45.047 4.782-7.654 86.050 12.092 115.799 6.274 9.667 19.242 12.417 28.89 6.133v0zM908.72 406.228c-112.041 0-203.188 91.159-203.188 203.2 0 97.992 80.987 339.757 203.188 339.757 122.080 0 202.983-241.763 202.983-339.757 0-112.041-91.053-203.2-202.983-203.2zM908.72 907.417c-83.373 0-161.424-204.895-161.424-297.992 0-89.014 72.42-161.433 161.424-161.433 88.891 0 161.219 72.42 161.219 161.433 0 93.097-77.938 297.992-161.219 297.992z" glyph-name="eggs" horiz-adv-x="1327" unicode=""/><glyph d="M1133.020 768.813l72.228 45.142c1.416-6.317 2.162-12.878 2.162-19.602v-722.824c0-49.628-40.725-90.353-90.353-90.353h-963.764c-49.625 0-90.353 40.725-90.353 90.353v722.824c0 6.723 0.748 13.284 2.164 19.602l570.070-356.294 497.845 311.153zM1202.2 824.471h-1134.050c12.497 34.974 46.061 60.235 85.144 60.235h963.764c39.087 0 72.65-25.261 85.143-60.235zM1117.058 41.412h30.118v686.81l-512-320-511.999 320v-686.81h993.881z" glyph-name="email" horiz-adv-x="1265" unicode=""/><glyph d="M521.481 960c282.77 0 512-229.23 512-512s-229.23-512-512-512c-282.77 0-512 229.23-512 512s229.23 512 512 512z" glyph-name="exclamation" horiz-adv-x="1043" unicode=""/><glyph d="M975.838 447.915c0 269.161-218.146 487.308-487.307 487.308s-487.308-218.146-487.308-487.308c0-269.161 218.146-487.307 487.308-487.307 2.856 0 5.709 0 8.565 0.191v379.184h-104.695v122.018h104.695v89.847c0 104.124 63.579 160.85 156.473 160.85 44.541 0 82.805-3.236 93.844-4.759v-108.882h-63.96c-50.443 0-60.342-23.984-60.342-59.201v-77.665h120.878l-15.801-122.018h-105.077v-360.721c203.679 58.439 352.728 245.939 352.728 468.463z" glyph-name="facebook" horiz-adv-x="996" unicode=""/><glyph d="M430.534 0c-15.826 0-29.083 5.376-39.77 16.128-10.724 10.716-16.087 24.008-16.087 39.875v336l-323.966 414.397c-13.964 18.666-16.049 38.267-6.256 58.8 9.756 20.533 26.736 30.8 50.941 30.8h781.987c24.207 0 41.206-10.267 50.995-30.8 9.759-20.533 7.654-40.134-6.308-58.8l-323.968-414.397v-336c0-15.867-5.345-29.158-16.031-39.875-10.726-10.752-23.997-16.128-39.823-16.128h-111.715z" glyph-name="filter" horiz-adv-x="973" unicode=""/><glyph d="M117.319 71.057h170.667v341.333h341.334v-341.333h170.667v511.998l-341.333 256-341.335-256v-511.998zM117.319-42.722c-31.289 0-58.064 11.132-80.327 33.395-22.3 22.298-33.451 49.092-33.451 80.384v511.998c0 18.015 4.039 35.082 12.117 51.2 8.040 16.119 19.172 29.393 33.394 39.823l341.334 256c10.429 7.585 21.333 13.274 32.711 17.067s23.23 5.689 35.557 5.689c12.326 0 24.175-1.896 35.554-5.689s22.281-9.481 32.713-17.067l341.333-256c14.221-10.43 25.37-23.704 33.451-39.823 8.038-16.118 12.058-33.185 12.058-51.2v-511.998c0-31.292-11.127-58.086-33.391-80.384-22.302-22.263-49.097-33.395-80.384-33.395h-284.446v341.333h-113.777v-341.333h-284.445z" glyph-name="home-small-two" horiz-adv-x="939" unicode=""/><glyph d="M117.319 71.057h170.667v341.333h341.334v-341.333h170.667v511.998l-341.333 256-341.335-256v-511.998zM117.319-42.722c-31.289 0-58.064 11.132-80.327 33.395-22.3 22.298-33.451 49.092-33.451 80.384v511.998c0 18.015 4.039 35.082 12.117 51.2 8.040 16.119 19.172 29.393 33.394 39.823l341.334 256c10.429 7.585 21.333 13.274 32.711 17.067s23.23 5.689 35.557 5.689c12.326 0 24.175-1.896 35.554-5.689s22.281-9.481 32.713-17.067l341.333-256c14.221-10.43 25.37-23.704 33.451-39.823 8.038-16.118 12.058-33.185 12.058-51.2v-511.998c0-31.292-11.127-58.086-33.391-80.384-22.302-22.263-49.097-33.395-80.384-33.395h-284.446v341.333h-113.777v-341.333h-284.445z" glyph-name="home" horiz-adv-x="939" unicode=""/><glyph d="M512 832c-84.868 0-166.263-33.714-226.274-93.726s-93.726-141.405-93.726-226.274c0-288 320-512 320-512s320 224 320 512c0 42.023-8.277 83.634-24.358 122.459s-39.654 74.1-69.367 103.815c-29.713 29.715-64.99 53.286-103.817 69.367-38.822 16.081-80.435 24.358-122.458 24.358zM512 384c-25.314 0-50.065 7.505-71.113 21.572-21.050 14.063-37.456 34.057-47.144 57.442-9.688 23.39-12.223 49.126-7.284 73.957 4.939 24.829 17.13 47.637 35.031 65.538 17.9 17.901 40.709 30.092 65.537 35.031 24.832 4.939 50.569 2.404 73.958-7.284 23.386-9.688 43.379-26.094 57.442-47.144 14.067-21.050 21.572-45.797 21.572-71.113 0-33.946-13.487-66.505-37.491-90.509s-56.559-37.491-90.509-37.491z" unicode=""/><glyph d="M512.418 704c-31.646 0-62.579-9.384-88.893-26.965-26.312-17.581-46.819-42.569-58.929-71.806s-15.279-61.407-9.105-92.444c6.174-31.036 21.412-59.546 43.789-81.924 22.376-22.374 50.883-37.615 81.923-43.785 31.036-6.174 63.206-3.008 92.442 9.105 29.239 12.109 54.225 32.614 71.808 58.927 17.579 26.313 26.965 57.246 26.965 88.892-0.107 42.402-16.998 83.037-46.98 113.021s-70.618 46.874-113.020 46.979zM512.418 448c-18.987 0-37.551 5.632-53.338 16.179s-28.092 25.54-35.356 43.085c-7.266 17.54-9.167 36.843-5.463 55.465s12.847 35.728 26.274 49.154c13.423 13.426 30.532 22.569 49.152 26.273 18.624 3.704 37.926 1.803 55.467-5.463s32.533-19.571 43.085-35.358c10.547-15.787 16.179-34.348 16.179-53.335-0.107-25.429-10.253-49.783-28.237-67.767-17.98-17.98-42.338-28.126-67.763-28.233z" unicode=""/><glyph d="M512.418 896c-93.325-0.106-182.796-37.225-248.786-103.215s-103.11-155.461-103.215-248.785c0-125.598 58-258.799 168-384.798 49.446-57.075 104.974-108.582 165.599-153.6 5.453-3.631 11.853-5.568 18.402-5.568 6.545 0 12.949 1.937 18.398 5.568 60.804 44.954 116.471 96.461 165.999 153.6 109.602 125.999 167.603 259.2 167.603 384.798-0.107 93.324-37.227 182.795-103.215 248.785-65.993 65.99-155.465 103.11-248.785 103.215zM512.418 72c-66.001 52.002-288.001 243.2-288.001 472 0 76.382 30.342 149.636 84.353 203.647s127.267 84.353 203.648 84.353c76.382 0 149.636-30.343 203.644-84.353 54.012-54.010 84.356-127.264 84.356-203.647 0-228.8-222.003-419.998-288-472z" unicode=""/><glyph d="M521.811 944.75c-139.168 0-156.512-0.672-210.976-2.976-54.688-2.688-91.68-11.168-124.32-23.84-34.161-12.897-65.099-33.089-90.656-59.168-26.152-25.498-46.355-56.452-59.168-90.656-12.672-32.64-21.152-69.632-23.84-124.32-2.464-54.497-2.976-71.809-2.976-210.977s0.672-156.512 2.976-210.976c2.688-54.528 11.168-91.68 23.84-124.32 12.897-34.16 33.089-65.098 59.168-90.656 25.498-26.15 56.452-46.355 90.656-59.168 32.64-12.512 69.792-21.152 124.32-23.84 54.496-2.464 71.808-2.976 210.976-2.976s156.512 0.672 210.976 2.976c54.528 2.688 91.68 11.36 124.32 23.84 34.16 12.899 65.098 33.091 90.656 59.168 26.186 25.472 46.394 56.435 59.168 90.656 12.512 32.64 21.152 69.792 23.84 124.32 2.464 54.496 2.976 71.808 2.976 210.976s-0.672 156.512-2.976 210.977c-2.688 54.528-11.36 91.872-23.84 124.32-12.896 34.161-33.088 65.099-59.168 90.656-25.469 26.186-56.432 46.394-90.656 59.168-32.64 12.672-69.792 21.152-124.32 23.84-54.496 2.464-71.808 2.976-210.976 2.976zM521.811 852.59c136.672 0 152.992-0.672 207.008-2.976 49.824-2.336 76.96-10.656 94.976-17.696 22.272-8.222 42.432-21.307 59.008-38.304 16.966-16.507 30.003-36.619 38.144-58.848 7.040-18.016 15.36-45.152 17.696-94.977 2.304-54.016 2.976-70.368 2.976-207.008s-0.672-152.992-3.168-207.008c-2.688-49.824-11.008-76.96-18.016-94.976-9.696-24.032-20.512-40.832-38.368-59.008-16.634-16.89-36.778-29.91-59.008-38.144-17.792-7.040-45.312-15.36-95.328-17.696-54.304-2.304-70.304-2.976-207.328-2.976s-152.992 0.672-207.36 3.168c-49.824 2.688-77.312 11.008-95.328 18.016-24.32 9.696-40.992 20.512-58.848 38.368-18.016 18.016-29.472 35.168-38.304 59.008-7.168 17.792-15.36 45.312-18.016 95.328-1.824 53.664-2.688 70.304-2.688 206.688 0 136.32 0.864 152.992 2.688 207.329 2.656 50.016 10.848 77.472 18.016 95.328 8.832 24.352 20.32 40.992 38.304 59.008 17.824 17.824 34.528 29.344 58.848 38.368 18.016 7.008 44.832 15.328 94.848 17.824 54.304 1.952 70.304 2.656 207.136 2.656l2.112-1.472zM521.811 695.566c-34.518 0.012-68.698-6.777-100.592-19.98-31.891-13.203-60.867-32.562-85.277-56.968-24.406-24.406-43.764-53.386-56.967-85.277s-19.993-66.074-19.98-100.592c-0.012-34.515 6.777-68.698 19.98-100.589s32.562-60.87 56.967-85.277c24.41-24.406 53.386-43.766 85.277-56.97 31.894-13.203 66.074-19.994 100.592-19.981 34.518-0.013 68.698 6.778 100.589 19.981 31.894 13.203 60.87 32.563 85.277 56.97 24.41 24.406 43.766 53.386 56.97 85.277s19.994 66.074 19.981 100.589c0.013 34.518-6.778 68.701-19.981 100.592s-32.56 60.87-56.97 85.277c-24.406 24.407-53.382 43.765-85.277 56.968-31.891 13.204-66.070 19.993-100.589 19.98zM521.811 262.093c-94.336 0-170.656 76.32-170.656 170.656s76.32 170.656 170.656 170.656c94.336 0 170.656-76.32 170.656-170.656s-76.32-170.656-170.656-170.656zM856.659 706.062c-0.016-16.309-6.509-31.945-18.045-43.471-11.539-11.526-27.181-18.001-43.491-18.001-8.064 0-16.051 1.588-23.501 4.674s-14.218 7.609-19.92 13.312c-5.702 5.702-10.227 12.472-13.312 19.922-3.088 7.45-4.675 15.436-4.675 23.5s1.587 16.049 4.675 23.5c3.085 7.45 7.61 14.22 13.312 19.922s12.47 10.225 19.92 13.311c7.45 3.086 15.437 4.675 23.501 4.675 33.824 0 61.536-27.52 61.536-61.344z" glyph-name="insta" horiz-adv-x="1056" unicode=""/><glyph d="M305.563 945.663c53.384 2.458 70.406 3.004 206.393 3.004s153.009-0.592 206.346-3.004c53.34-2.412 89.75-10.923 121.607-23.256 33.359-12.607 63.625-32.313 88.655-57.799 25.487-24.986 45.148-55.205 57.709-88.61 12.38-31.858 20.845-68.267 23.303-121.515 2.458-53.477 3.004-70.496 3.004-206.438 0-135.987-0.594-153.009-3.004-206.394-2.413-53.248-10.923-89.655-23.303-121.515-12.561-33.41-32.256-63.679-57.709-88.699-25.030-25.487-55.296-45.148-88.655-57.709-31.857-12.38-68.267-20.845-121.515-23.303-53.429-2.458-70.451-3.004-206.438-3.004s-153.009 0.594-206.393 3.004c-53.248 2.413-89.657 10.923-121.515 23.303-33.409 12.561-63.678 32.256-88.701 57.709-25.469 24.999-45.178 55.255-57.754 88.655-12.333 31.857-20.798 68.267-23.256 121.515-2.458 53.477-3.004 70.496-3.004 206.438 0 135.987 0.592 153.009 3.004 206.348s10.923 89.748 23.256 121.605c12.594 33.402 32.318 63.656 57.799 88.656 24.987 25.463 55.226 45.172 88.61 57.754 31.858 12.333 68.267 20.798 121.515 23.256h0.045zM714.254 855.551c-52.794 2.412-68.632 2.913-202.298 2.913s-149.504-0.5-202.297-2.913c-48.834-2.23-75.321-10.377-92.979-17.249-23.347-9.102-40.050-19.888-57.571-37.41-16.61-16.159-29.392-35.83-37.41-57.571-6.872-17.658-15.019-44.146-17.249-92.979-2.412-52.793-2.913-68.631-2.913-202.297s0.5-149.504 2.913-202.298c2.23-48.831 10.377-75.319 17.249-92.979 8.010-21.709 20.799-41.414 37.41-57.569 16.156-16.613 35.863-29.402 57.571-37.41 17.658-6.874 44.146-15.019 92.979-17.251 52.793-2.41 68.586-2.912 202.297-2.912s149.504 0.502 202.298 2.912c48.831 2.232 75.319 10.377 92.979 17.251 23.347 9.1 40.049 19.886 57.569 37.41 16.613 16.155 29.402 35.86 37.41 57.569 6.874 17.661 15.019 44.148 17.251 92.979 2.41 52.794 2.912 68.632 2.912 202.298s-0.502 149.504-2.912 202.297c-2.232 48.834-10.377 75.321-17.251 92.979-9.1 23.347-19.886 40.050-37.41 57.571-16.159 16.609-35.83 29.391-57.569 37.41-17.661 6.872-44.148 15.019-92.979 17.249v0zM448.014 293.717c35.71-14.865 75.472-16.872 112.5-5.676 37.024 11.196 69.014 34.898 90.505 67.058 21.494 32.16 31.15 70.786 27.327 109.278s-20.89 74.462-48.288 101.769c-17.466 17.456-38.584 30.819-61.836 39.134-23.248 8.311-48.053 11.366-72.625 8.943-24.576-2.423-48.305-10.264-69.482-22.961-21.18-12.694-39.281-29.928-52.999-50.459-13.718-20.528-22.716-43.848-26.341-68.27-3.625-24.426-1.792-49.35 5.373-72.98 7.161-23.631 19.473-45.377 36.052-63.679 16.575-18.299 37.004-32.696 59.815-42.155zM330.002 629.998c23.896 23.894 52.261 42.849 83.482 55.78 31.218 12.932 64.679 19.587 98.471 19.587s67.253-6.656 98.471-19.587c31.222-12.931 59.587-31.886 83.483-55.78 23.893-23.896 42.848-52.261 55.777-83.482 12.933-31.218 19.589-64.679 19.589-98.471s-6.656-67.253-19.589-98.471c-12.93-31.222-31.884-59.587-55.777-83.483-48.258-48.254-113.708-75.366-181.955-75.366s-133.697 27.112-181.954 75.366c-48.257 48.258-75.367 113.708-75.367 181.955s27.11 133.697 75.367 181.954v0zM826.348 667.044c5.919 5.586 10.66 12.303 13.94 19.753 3.277 7.451 5.028 15.483 5.147 23.622s-1.396 16.219-4.458 23.762c-3.058 7.543-7.601 14.395-13.36 20.151-5.755 5.756-12.605 10.298-20.149 13.359s-15.623 4.576-23.764 4.457c-8.137-0.118-16.172-1.869-23.62-5.148-7.451-3.279-14.169-8.019-19.753-13.94-10.865-11.516-16.811-26.811-16.582-42.641 0.232-15.829 6.622-30.945 17.818-42.139 11.192-11.194 26.31-17.585 42.138-17.816 15.831-0.231 31.126 5.717 42.643 16.58v0z" glyph-name="instasmall" unicode=""/><glyph d="M682.667 639.979v-234.645h-21.333v256h-234.667v-256h-21.333v234.655c0.014 11.315 4.515 22.162 12.515 30.163s18.849 12.502 30.164 12.515h191.974c11.315-0.014 22.161-4.515 30.165-12.515 7.996-7.999 12.497-18.844 12.514-30.156 0-0.006 0-0.012 0-0.017zM512 448h64v-64h-64v64zM512 576h64v-64h-64v64zM544.418 896c-93.325-0.106-182.796-37.225-248.786-103.215s-103.11-155.461-103.215-248.785c0-125.598 58-258.799 168-384.798 49.446-57.075 104.974-108.582 165.599-153.6 5.453-3.631 11.853-5.568 18.402-5.568 6.545 0 12.949 1.937 18.398 5.568 60.804 44.954 116.471 96.461 165.999 153.6 109.602 125.999 167.603 259.2 167.603 384.798-0.107 93.324-37.227 182.795-103.215 248.785-65.993 65.99-155.465 103.11-248.785 103.215zM544.418 72c-66.001 52.002-288.001 243.2-288.001 472 0 76.382 30.342 149.636 84.353 203.647s127.267 84.353 203.648 84.353c76.382 0 149.636-30.343 203.644-84.353 54.012-54.010 84.356-127.264 84.356-203.647 0-228.8-222.003-419.998-288-472z" glyph-name="locate" horiz-adv-x="1067" unicode=""/><glyph d="M27.955 692.582c-24.577 24.578-24.577 64.425 0 89.002l88.145 88.145c24.558 24.558 64.369 24.58 88.953 0.049l532.010-530.851 532.008 530.85c24.585 24.532 64.4 24.51 88.958-0.048l88.138-88.145c24.585-24.578 24.585-64.424 0-89.002l-709.104-709.106-709.108 709.106z" glyph-name="Mask" horiz-adv-x="1489" unicode=""/><glyph d="M658.823 840.084v94.548c0 14.045-11.32 25.368-25.355 25.368l-458.069-0.013c-14.007 0-25.355-11.323-25.355-25.368v-94.587l-144.993-193.413c-0.14-0.214-0.293-0.419-0.42-0.636-0.242-0.369-0.42-0.723-0.662-1.080-0.623-0.968-1.145-1.896-1.603-2.914-0.178-0.382-0.369-0.714-0.471-1.108-0.547-1.309-1.018-2.697-1.298-4.121-0.051-0.344-0.089-0.636-0.14-0.956-0.216-1.219-0.331-2.492-0.382-3.776-0.013-0.217-0.076-0.419-0.076-0.636v-670.025c0-14.019 11.323-25.367 25.368-25.367h759.066c14.019 0 25.355 11.348 25.355 25.367v670.056c0 5.511-1.806 10.839-5.101 15.242l-145.864 193.419zM50.68 606.013h407.396v-185.077h-407.396v185.077zM50.693 370.188h407.395v-168.488l-407.395 0.012v168.476zM200.799 909.255h407.395v-52.288h-407.395v52.288zM188.115 806.232h394.693l-112.054-149.496h-394.759l112.119 149.496zM50.681 150.993h407.394v-164.302h-407.394v164.302zM759.038-13.309h-250.253v636.283l124.751 166.48 125.502-166.517v-636.245z" glyph-name="milk" horiz-adv-x="838" unicode=""/><glyph d="M964.923 448c0-250.144-202.78-452.923-452.923-452.923v-39.385c271.896 0 492.308 220.412 492.308 492.308h-39.385zM512 900.923c250.144 0 452.923-202.781 452.923-452.923h39.385c0 271.894-220.412 492.308-492.308 492.308v-39.385zM59.077 448c0 250.142 202.781 452.923 452.923 452.923v39.385c-271.894 0-492.308-220.414-492.308-492.308h39.385zM512-4.923c-250.142 0-452.923 202.78-452.923 452.923h-39.385c0-271.896 220.414-492.308 492.308-492.308v39.385zM649.846 448c0-76.13-61.716-137.846-137.846-137.846v-39.385c97.883 0 177.231 79.348 177.231 177.231h-39.385zM512 585.846c76.13 0 137.846-61.716 137.846-137.846h39.385c0 97.883-79.348 177.231-177.231 177.231v-39.385zM374.154 448c0 76.13 61.716 137.846 137.846 137.846v39.385c-97.883 0-177.231-79.348-177.231-177.231h39.385zM512 310.154c-76.13 0-137.846 61.716-137.846 137.846h-39.385c0-97.883 79.348-177.231 177.231-177.231v39.385zM983.442 379.813c-0.071-1.268-0.358-2.308-0.717-3.576-0.213-0.599-0.429-1.343-0.642-2.237l-1.221-4.769-4.084 2.532c-23.012 14.312-48.821 20.87-73.842 27.207-6.168 1.564-12.402 3.202-18.57 4.844-50.397 13.863-79.072 55.005-76.705 110.155 0.284 7.601 0.859 15.206 1.434 22.808 1.717 23.103 3.513 47.028-2.080 69.984-19.216 79.822-66.887 130.354-141.588 150.329-5.38 1.416-10.827 2.758-16.278 4.099-8.027 1.938-16.416 3.876-24.517 6.335-46.525 14.012-74.63 54.035-73.196 104.418 0.146 5.366 0.646 10.658 1.075 16.024 0.504 6.261 1.075 12.67 1.075 18.931 0 4.099 0.433 8.646 3.442 11.403 3.013 2.757 7.385 2.534 11.615 1.938 77.28-11.031 146.034-38.383 204.316-81.239 150.981-111.051 221.81-265.628 210.483-459.186z" glyph-name="navdonut" unicode=""/><glyph d="M940.265 374.611c-7.705-7.871-7.987-20.385-0.643-28.598 7.355-8.199 19.791-9.269 28.425-2.436 36.235 34.512 60.815 79.512 70.303 128.706 2.567 11.215-4.371 22.39-15.526 25.032-11.165 2.634-22.359-4.265-25.042-15.441-7.443-40.935-27.563-78.474-57.521-107.262h0.004zM571.272 601.558c4.777-286.413 127.266-353.774 275.039-405.762h-0.011c4.456-1.557 9.322-1.557 13.782 0 147.83 52.040 270.297 119.349 275.089 405.762 8.916 3.806 16.511 10.163 21.861 18.267 5.342 8.104 8.199 17.597 8.21 27.313v11.145c-0.134 59.516-23.792 116.552-65.794 158.619-42.005 42.054-98.918 65.705-158.279 65.765h-67.139v44.581c0 11.534-9.325 20.891-20.837 20.891-11.515 0-20.837-9.357-20.837-20.891v-44.581h-67.083c-59.406-0.058-116.362-23.748-158.374-65.862-42.012-42.123-65.638-99.239-65.695-158.803v-11.145c0.067-9.668 2.945-19.103 8.284-27.149s12.909-14.361 21.776-18.15h0.007zM1123.558 647.138c0-4.305-3.489-7.803-7.782-7.803h-525.072c-4.301 0-7.8 3.488-7.828 7.803v11.145c0.078 48.467 19.315 94.943 53.502 129.204 34.191 34.27 80.546 53.548 128.886 53.608h175.895c48.358-0.039 94.72-19.317 128.922-53.608 34.191-34.28 53.417-80.777 53.467-129.263l0.011-11.086zM613.002 597.543h480.436c-5.166-252.186-102.7-310.766-240.245-359.844-137.491 49.099-235.022 107.661-240.188 359.844h-0.004zM952.62 745.091c-3.665-4.722-9.17-7.637-15.12-8.026h-1.278c-5.487 0.117-10.71 2.371-14.558 6.297l-36.398 36.496c-8.132 8.192-8.114 21.435 0.056 29.589 8.16 8.162 21.37 8.133 29.512-0.048l19.671-19.832 14.054 17.937c3.4 4.402 8.411 7.268 13.916 7.958 5.515 0.68 11.077-0.865 15.438-4.305 4.371-3.43 7.193-8.483 7.842-14.011 0.639-5.529-0.943-11.087-4.4-15.44l-28.736-36.614zM1036.818 671.321c-3.704-4.703-9.216-7.599-15.176-7.968h-1.222c-5.523 0-10.826 2.205-14.731 6.131l-36.398 36.437c-8.132 8.133-8.143 21.348-0.032 29.5 8.121 8.152 21.292 8.172 29.431 0.029l19.841-19.949 14.001 17.947c7.136 8.978 20.159 10.504 29.163 3.411 9.011-7.084 10.632-20.133 3.623-29.208l-28.499-36.329zM898.542 737.123c4.354-3.411 7.164-8.424 7.821-13.924 0.66-5.5-0.89-11.038-4.311-15.382l-28.513-36.496c-3.672-4.703-9.177-7.599-15.116-7.968h-1.278c-5.505 0-10.787 2.205-14.675 6.131l-36.401 36.437c-8.128 8.133-8.139 21.348-0.028 29.499 8.121 8.152 21.303 8.172 29.431 0.029l19.509-19.949 14.004 17.947c3.4 4.451 8.45 7.355 14.015 8.045 5.551 0.69 11.155-0.884 15.544-4.372v0.002zM735.324 737.123c9.050-7.113 10.643-20.23 3.556-29.305l-28.559-36.497c-3.704-4.693-9.216-7.589-15.176-7.968h-1.328c-5.544-0.010-10.865 2.196-14.788 6.131l-36.341 36.437c-8.132 8.172-8.121 21.407 0.028 29.559s21.349 8.143 29.481-0.029l19.731-19.783 14.061 17.947c3.422 4.363 8.443 7.19 13.948 7.851 5.505 0.651 11.038-0.904 15.388-4.344v0zM785.952 745.091c-3.655-4.722-9.16-7.637-15.109-8.026h-1.282c-5.501 0.097-10.756 2.361-14.611 6.296l-36.401 36.497c-8.143 8.191-8.111 21.435 0.049 29.589 8.167 8.162 21.377 8.133 29.509-0.049l19.675-19.832 14.061 17.937c3.404 4.401 8.404 7.268 13.916 7.958 5.515 0.68 11.070-0.865 15.441-4.305 4.368-3.43 7.189-8.483 7.828-14.011 0.65-5.529-0.929-11.087-4.4-15.44l-28.676-36.614zM504.087 244.556h0.011c11.116 2.797 22.436-3.838 25.452-14.936 7.945-30.752 7.945-63.022 0-93.777-2.316-9.318-10.653-15.858-20.226-15.876-1.688 0.007-3.365 0.212-5.011 0.611-11.176 2.768-18.008 14.082-15.275 25.293 6.359 23.972 6.359 49.194 0 73.167-2.85 11.215 3.888 22.623 15.060 25.519h-0.011zM58.608 103.862l11.959-11.981c8.645-8.665 20.391-13.524 32.62-13.485 5.698 0.039 11.348 1.116 16.669 3.178 102.813-99.406 186.285-133.734 261.864-133.734 62.076 3.245 122.587 20.618 176.954 50.819 4.273 2.041 7.722 5.48 9.777 9.756 62.023 129.381 97.757 252.31-82.859 440.189v-0.011c3.354 8.319 4.16 17.443 2.316 26.207-1.84 8.775-6.239 16.801-12.655 23.058l-11.836 11.924c-38.114 36.447-88.76 56.783-141.433 56.783s-103.327-20.335-141.435-56.783l-46.178-46.253-27.234 27.362c-8.15 8.171-21.36 8.171-29.511 0s-8.15-21.416 0-29.59l27.291-27.362-46.131-46.193c-37.611-37.602-58.759-88.657-58.786-141.905-0.029-53.259 21.059-104.339 58.623-141.983l-0.015 0.004zM152.147 108.149l306.696 307.507c156.107-163.759 131.432-263.676 75.077-382.803-118.872-56.444-218.566-81.080-381.793 75.275l0.020 0.021zM88.069 357.944l121.644 122.036c29.695 29.752 69.951 46.465 111.933 46.465 41.972 0 82.233-16.712 111.922-46.465l11.949-11.984v-6.236l-1.162-1.225-338.114-339.046c-1.735-1.741-4.545-1.741-6.28 0l-11.833 11.921c-29.695 29.784-46.372 70.155-46.382 112.259-0.010 42.115 16.65 82.496 46.324 112.29l-0.003-0.014zM244.399 399.794h-37.185c-11.503 0-20.836 9.357-20.836 20.89 0 11.546 9.333 20.904 20.836 20.904h13.674l-1.163 9.802c-0.911 11.186 7.152 21.094 18.268 22.436 11.107 1.352 21.301-6.345 23.075-17.422l4.003-33.435v0.011c0.717-5.936-1.134-11.893-5.088-16.363-3.954-4.481-9.623-7.034-15.583-7.044l-0.001 0.222zM307.363 449.942h13.674l-1.221 9.806h-0.010c-1.376 11.465 6.774 21.882 18.2 23.262 11.436 1.388 21.823-6.783 23.2-18.248l4.004-33.435v0.011c0.696-5.929-1.165-11.875-5.109-16.345s-9.613-7.034-15.563-7.062h-37.175c-11.513 0-20.846 9.357-20.846 20.9 0 11.532 9.333 20.89 20.846 20.89l-0.001 0.222zM206.498 348.866h13.674l-1.163 9.862h-0.010c-0.669 5.491 0.862 11.031 4.274 15.385 3.411 4.343 8.412 7.15 13.897 7.793 5.505 0.777 11.077-0.731 15.448-4.17s7.162-8.513 7.724-14.050l4.002-33.435c0.737-5.929-1.105-11.893-5.068-16.373-3.954-4.477-9.633-7.034-15.603-7.023h-37.175c-11.513 0-20.846 9.357-20.846 20.89 0 11.543 9.333 20.9 20.846 20.9l-0.001 0.222zM103.188 245.227h13.781l-1.163 9.862h-0.010c-0.669 5.501 0.863 11.038 4.274 15.402s8.412 7.182 13.897 7.832c5.514 0.759 11.087-0.766 15.457-4.209 4.371-3.446 7.152-8.52 7.724-14.068l4.002-33.435c0.707-5.929-1.144-11.882-5.098-16.352-3.944-4.481-9.623-7.037-15.584-7.044h-37.174c-11.513 0-20.836 9.357-20.836 20.89 0 11.543 9.323 20.9 20.836 20.9l-0.108 0.222zM111.077 295.375c-11.513 0-20.846 9.357-20.846 20.893 0 11.543 9.333 20.9 20.846 20.9h13.674l-1.221 9.862h-0.010c-1.367 11.437 6.765 21.832 18.181 23.234 5.514 0.794 11.116-0.699 15.496-4.16 4.38-3.45 7.152-8.559 7.675-14.121l4.061-33.432h-0.010c0.688-5.939-1.173-11.896-5.107-16.384-3.944-4.47-9.614-7.023-15.564-7.016l-37.175 0.222z" glyph-name="nuts" horiz-adv-x="1165" unicode=""/><glyph d="M699.635 498.052c-42.419-40.55-91.554-60.693-133.935-71.386h-0.542l-2.517-0.619c-36.843-9.079-87.484-12.476-130.778-13.466-35.209-0.806-63.126-0.026-74.833 0.303-2.762 0.077-4.622 0.128-5.463 0.128-33.31 0-60.973-24.192-66.014-56.124l-44.944-284.642h-176.899c-1.736 0-3.644 0.806-5.14 2.573-1.481 1.745-1.996 3.763-1.691 5.585l0.028 0.179 130.816 828.122c0.004 0.026 0.009 0.052 0.013 0.079 2.883 17.065 17.928 29.882 35.264 29.882h307.77c87.155 0 145.954-15.857 185.489-37.992 39.177-21.935 60.599-50.668 72.252-79.051 11.814-28.783 13.867-57.994 12.791-80.44-0.538-11.147-1.835-20.4-2.978-26.779-0.567-3.183-1.097-5.631-1.463-7.219-0.183-0.794-0.329-1.371-0.414-1.716l-0.085-0.32-0.009-0.040-0.004-0.017-0.316-1.137-0.192-1.224c-15.578-100.037-53.193-163.563-96.205-204.679zM866.961 659.042c-46.080-212.194-191.147-324.266-422.114-324.266h-83.628l-58.595-370.914c-2.275-14.793 9.102-27.878 23.893-27.878h108.090c19.341 0 36.407 14.225 39.253 33.566 4.548 22.754 29.581 188.873 34.701 217.314 2.846 19.345 19.913 33.566 39.253 33.566h25.033c160.427 0 286.153 65.421 323.127 253.726 14.793 76.229 6.827 138.807-29.013 184.887z" glyph-name="paypal" horiz-adv-x="939" unicode=""/><glyph d="M939.872 34.255l-56.543-56.543-140.243 140.243c-14.692-28.049-33.837-52.981-56.988-74.351-33.975-32.024-75.264-55.256-120.271-67.673-45.007-12.413-92.369-13.637-137.957-3.562-156.271 33.391-255.555 187.437-222.163 343.708 11.13 52.536 36.953 100.619 73.906 139.353 7.297 7.693 11.364 17.893 11.364 28.494 0 10.605-4.067 20.801-11.364 28.494-28.755 35.984-47.767 78.76-55.207 124.217l-219.492 219.492 56.988 56.543 877.971-878.415zM636.679 118.846c17.363 19.144 31.165 41.405 39.624 65.892l-108.633 108.633c-8.014-10.24-20.48-16.028-33.391-16.028-24.487 0-44.522 20.035-44.522 44.522 0 12.911 5.788 25.377 16.028 33.391l-125.108 125.106c-0.89-32.946-13.802-64.111-36.508-87.708-75.687-80.584-71.235-207.471 9.35-283.158l0.445-0.445c38.828-36.112 90.388-55.358 143.38-53.52 52.994 1.834 103.099 24.603 139.335 63.314zM578.8 232.822c-57.433 0-56.988-89.043 0-89.043s57.433 89.043 0 89.043zM262.694 824.962l68.118-68.118c11.13 23.151 27.603 43.631 47.638 59.659 31.165 25.823 70.792 39.624 111.307 39.624h39.179c26.268-6.233 49.864-18.254 72.125-35.172 76.577-61.44 89.043-173.635 27.603-250.212-18.797-23.219-29.295-52.052-29.83-81.921l172.299-172.299c-11.13 51.2-36.508 97.948-71.235 136.237-15.583 16.028-17.363 41.405-4.452 59.659 0 0 61.44 76.578 61.44 165.622s-90.379 267.264-267.13 267.264c-176.754 0-227.063-120.342-227.063-120.342zM489.757 232.822c0 57.433-89.046 56.988-89.046 0s89.046-57.433 89.046 0zM534.279 767.084c-57.433 0-56.988-89.043 0-89.043s57.433 89.043 0 89.043z" glyph-name="peanut" horiz-adv-x="979" unicode=""/><glyph d="M937.605 959.91c-7.975-0.772-15.397-5.872-18.987-13.040-30.72-61.469-102.806-101.553-174.989-154.201-69.046-50.366-136.912-116.469-153.771-226.826-64.202-21.712-119.367-42.167-166.425-77.476-48.364-36.278-87.415-88.188-122.491-166.493-163.52-38.996-252.915-141.753-300.096-306.924-3.14-10.879 2.733-23.62 13.031-28.303 180.53-84.278 333.711-59.727 489.226 46.561 166.186 36.892 288.762 133.561 339.558 267.435 179.216 159.077 238.924 405.133 118.396 646.227-4.27 8.488-13.995 13.904-23.456 13.040h0.003zM934.623 886.903c88.564-212.606 31.58-417.272-127.705-555.351-3.131-2.557-5.589-5.921-7.078-9.685-43.877-120.695-153.079-209.315-311.259-243.219-3.063-0.664-5.986-1.936-8.561-3.721-142.227-98.496-265.736-121.418-425.565-53.264 45.997 145.504 117.923 224.805 268.074 256.996 7.336 1.61 13.765 6.895 16.753 13.781 34.146 79.698 69.536 125.456 112.817 157.929 43.278 32.473 96.352 52.243 166.425 75.615 8.698 2.805 15.391 11.019 16.378 20.108 10.889 103.443 68.298 157.714 137.017 207.838 56.246 41.021 119.411 77.839 162.707 132.972h-0.003zM775.646 714.447c-27.608-21.187-51.203-49.020-64.41-77.1-11.903-25.308-21.811-54.427-20.108-85.299 6.104-40.175 27.465-68.763 54.359-86.038 38.372-16.313 78.271 0.406 107.973 25.333 29.125 24.433 51.65 58.048 64.41 90.878 12.539 32.517 11.736 65.887 5.955 93.488-8.114 29.31-22.801 56.785-51.752 67.042-35.117 8.862-71.543-9.443-96.43-28.305h0.003zM856.809 696.947c4.267-2.126 15.872-14.56 21.219-33.894 5.548-20.049 4.695-44.036-2.979-60.339-13.737-28.172-31.387-56.705-52.5-74.867-21.603-18.131-40.929-23.896-56.969-17.883-19.444 13.256-25.83 26.993-26.81 44.693-1.021 18.497 5.691 41.419 15.639 62.576 8.648 18.379 28.697 42.664 50.269 59.219 16.136 10.797 33.603 20.623 52.125 20.49l0.006 0.005zM520.971 447.392c-33.764-24.883-62.858-58.073-78.929-90.888-14.693-29.991-26.652-64.509-24.576-100.566 2.076-36.054 20.905-72.856 60.689-97.215 51.61-19.869 99.815 2.749 131.426 27.564 34.186 32.402 64.493 71.103 80.421 109.137 17.535 40.082 14.985 76.651 6.33 108.013-9.917 34.403-28.722 65.604-61.437 76.729-41.072 10.637-84.883-11.636-113.928-32.774h0.003zM620.38 434.735c8.372-3.299 23.139-20.334 30.158-44.699 7.159-24.837 6.479-54.412-3.721-75.242-17.625-34.859-40.538-69.393-67.019-91.254-27.797-22.391-54.89-31.235-77.815-23.090-27.192 17.169-35.924 35.384-37.236 58.107-1.337 23.18 7.485 51.343 20.108 77.101 11.248 22.941 36.706 52.956 64.41 73.38 22.534 14.832 49.037 28.064 71.112 25.696h0.003zM289.39 231.365c-35.315-4.568-70.731-16.828-96.801-34.636-23.563-16.105-47.1-36.942-61.438-64.807-16.163-32.573-10.814-73.951 4.095-102.425 25.706-33.562 69.294-39.17 108.346-32.399 38.421 6.653 76.070 24.235 104.251 46.561 25.076 21.585 44.252 51.411 52.873 78.96 7.848 29.786 8.471 61.462-11.909 84.924-29.975 22.087-68.971 26.72-99.411 23.837l-0.007-0.016zM353.060 175.12c2.824-4.245 6.634-20.691 1.486-40.225-5.356-20.34-18.106-41.252-33.513-51.768-27.251-17.461-57.435-33.516-85.631-38.738-28.704-4.968-49.735-0.391-61.063 13.039-10.515 21.454-8.987 36.876-0.748 52.891 8.613 16.735 26.37 33.404 46.171 46.924 17.284 11.81 47.683 23.208 75.581 26.819 19.66 3.007 39.932-0.465 57.709-8.937l0.006-0.006z" glyph-name="peas" unicode=""/><glyph d="M959.617 219.86v-178.817c0.004-12.804-4.847-25.134-13.574-34.501s-20.681-15.076-33.454-15.971c-22.096-1.517-40.148-2.325-54.101-2.325-446.847 0-809.043 362.238-809.043 809.13 0 13.957 0.759 32.011 2.326 54.111 0.896 12.772 6.603 24.728 15.969 33.457s21.693 13.579 34.495 13.574h178.798c6.272 0.006 12.323-2.319 16.976-6.525s7.578-9.991 8.205-16.232c1.163-11.631 2.225-20.885 3.236-27.915 10.049-70.138 30.643-138.353 61.083-202.333 4.804-10.114 1.669-22.201-7.433-28.674l-109.12-77.981c66.719-155.477 190.607-279.381 346.069-346.104l77.87 108.927c3.182 4.453 7.828 7.642 13.122 9.019 5.294 1.381 10.904 0.853 15.853-1.483 63.966-30.386 132.153-50.931 202.259-60.936 7.028-1.013 16.282-2.124 27.811-3.239 6.231-0.637 12.004-3.569 16.198-8.222s6.512-10.695 6.504-16.96h-0.049z" glyph-name="phone" unicode=""/><glyph d="M426.45 916.898l-10.169 14.105-16.215-6.28c-104.086-40.31-190.322-112.198-258.763-214.433l-0.122-0.182-0.119-0.185c-65.273-101.744-103.749-210.867-115.14-327.145-11.361-115.962 5.495-215.681 52.516-297.627l0.149-0.259 0.156-0.255c51.573-84.591 133.945-126.131 242.586-126.131 33.122 0 64.909 6.011 95.194 18.075l0.482 0.191 0.471 0.214c32.617 14.764 61.093 34.107 85.192 58.107 23.881 23.78 42.065 50.745 54.29 80.836 15.055 30.291 22.655 62.296 22.655 95.763 0 35.744-7.41 69.052-22.493 99.555-12.124 32.691-30.277 61.209-54.452 85.283-24.175 24.075-52.801 42.143-85.602 54.204-30.299 14.877-62.293 22.382-95.737 22.382h-0.817c6.961 27.597 15.31 50.867 24.887 70.021 15.386 28.004 37.455 57.876 66.612 89.597 31.324 31.118 72.263 61.457 123.247 90.851l21.587 12.446-130.393 180.866zM1129.652 916.898l-10.17 14.105-16.215-6.28c-104.086-40.31-190.322-112.198-258.763-214.433l-0.122-0.182-0.119-0.185c-65.274-101.744-103.749-210.867-115.14-327.145-11.361-115.962 5.495-215.681 52.515-297.627l0.15-0.259 0.155-0.255c51.572-84.591 133.945-126.131 242.586-126.131 33.122 0 64.909 6.011 95.194 18.075l0.482 0.191 0.471 0.214c32.618 14.764 61.088 34.107 85.191 58.107 23.878 23.78 42.063 50.745 54.295 80.836 15.056 30.291 22.652 62.296 22.652 95.763 0 35.745-7.416 69.052-22.494 99.555-12.119 32.691-30.281 61.209-54.452 85.283-24.171 24.075-52.798 42.142-85.601 54.204-30.299 14.877-62.293 22.382-95.737 22.382h-0.818c6.962 27.597 15.312 50.867 24.888 70.021 15.386 28.004 37.455 57.876 66.612 89.597 31.321 31.118 72.258 61.457 123.245 90.851l21.594 12.446-130.397 180.866z" glyph-name="quotes" horiz-adv-x="1305" unicode=""/><glyph d="M831.693 460.189c21.152-28.781 41.83-33.526 73.184-40.682 21.706-4.944 46.966-10.755 72.627-25.859 3.875 39.734 2.608 79.827-3.757 119.718-16.998 106.592-70.573 204.8-150.87 276.599-72.512 64.801-163.882 105.8-259.677 116.91-0.355-7.275-0.87-14.075-1.386-20.164l-0.077-1.028c-2.493-31.431-4.154-52.228 16.723-80.655 20.995-28.625 41.514-33.29 72.589-40.406l0.515-0.119c38.39-8.777 85.872-19.61 128.019-77.017 42.186-57.448 38.31-106.078 35.187-145.14-2.57-32.221-4.269-53.373 16.883-82.157h0.038z" unicode=""/><glyph d="M512 960c-282.332 0-512-229.668-512-512 0-282.333 229.668-512 512-512 282.333 0 512 229.667 512 512s-229.667 512-512 512zM779.149 693.562c-40.051 54.521-85.162 64.84-121.654 73.182l-0.474 0.119c-29.494 6.761-49.027 11.189-68.954 38.39-19.846 27.004-18.266 46.772-15.891 76.662l0.077 0.949c0.477 5.812 0.989 12.256 1.306 19.175 91.053-10.556 177.837-49.5 246.749-111.098 76.304-68.201 127.19-161.546 143.36-262.8 6.048-37.875 7.235-76.029 3.558-113.747-24.394 14.39-48.394 19.888-69.030 24.592-29.773 6.8-49.462 11.309-69.546 38.666-20.086 27.36-18.464 47.446-16.051 78.048 2.963 37.123 6.64 83.341-33.45 137.903v-0.040zM512-16.557c-256.158 0-464.556 208.4-464.556 464.557s208.398 464.556 464.556 464.556c4.784 0 9.568-0.079 14.314-0.237-0.118-8.975-0.752-17.712-1.386-25.699l-0.080-0.949c-2.646-33.053-5.376-67.252 24.95-108.489 30.403-41.435 64.086-49.105 96.666-56.537l0.672-0.158c33.014-7.551 64.17-14.668 93.782-54.956 29.613-40.328 27.082-72.273 24.394-106.235-2.688-33.488-5.418-68.16 25.104-109.715 30.563-41.59 64.445-49.341 97.261-56.854 26.57-6.048 54.006-12.374 79.51-38.074-43.334-211.558-230.934-371.168-455.107-371.168l-0.080-0.042z" unicode=""/><glyph d="M709.622 501.619c10.934-40.275 9.306-82.931-4.672-122.256-13.978-39.322-39.635-73.437-73.536-97.776h40.576c5.091 0 9.974-2.022 13.574-5.622 3.603-3.6 5.626-8.486 5.626-13.578s-2.022-9.974-5.626-13.578c-3.6-3.6-8.483-5.622-13.574-5.622h-108.8v108.8c0 5.091 2.022 9.978 5.622 13.578s8.483 5.622 13.578 5.622c5.091 0 9.974-2.022 13.574-5.622 3.603-3.6 5.626-8.486 5.626-13.578v-44.211c31.373 20.054 55.114 50.051 67.424 85.19s12.48 73.395 0.48 108.643c-12 35.248-35.475 65.453-66.672 85.782-31.194 20.33-68.304 29.606-105.398 26.352-37.091-3.254-72.019-18.854-99.197-44.307s-45.034-59.283-50.71-96.083c-5.677-36.8 1.152-74.438 19.395-106.899 18.243-32.458 46.845-57.862 81.232-72.144 4.589-2.029 8.202-5.77 10.064-10.429s1.83-9.862-0.093-14.493c-1.923-4.634-5.584-8.333-10.198-10.301-4.618-1.968-9.818-2.051-14.493-0.234-32.118 13.344-60.307 34.643-81.914 61.894-21.603 27.254-35.914 59.558-41.579 93.872-5.666 34.31-2.5 69.501 9.199 102.253s31.545 61.984 57.667 84.941c26.122 22.96 57.661 38.887 91.642 46.283 33.984 7.396 69.29 6.017 102.589-4.007 33.302-10.023 63.501-28.365 87.754-53.29s41.731-55.616 50.842-89.181z" unicode=""/><glyph d="M1145.374 783.872l72.228 45.142c1.416-6.317 2.162-12.878 2.162-19.602v-722.824c0-49.628-40.725-90.353-90.353-90.353h-963.765c-49.625 0-90.353 40.725-90.353 90.353v722.824c0 6.723 0.748 13.284 2.164 19.602l570.072-356.294 497.845 311.153zM1214.554 839.529h-1134.051c12.497 34.974 46.061 60.235 85.144 60.235h963.765c39.081 0 72.65-25.261 85.143-60.235zM1129.412 56.471h30.118v686.81l-512-320-512 320v-686.81h993.882z" glyph-name="small-email" horiz-adv-x="1265" unicode=""/><glyph d="M156.444 49.778h170.667v341.333h341.333v-341.333h170.667v512l-341.333 256-341.333-256v-512zM156.444-64c-31.289 0-58.065 11.133-80.327 33.394-22.3 22.3-33.451 49.095-33.451 80.384v512c0 18.015 4.039 35.082 12.117 51.2 8.040 16.118 19.172 29.393 33.394 39.822l341.333 256c10.429 7.585 21.333 13.274 32.711 17.067s23.229 5.689 35.556 5.689c12.326 0 24.178-1.896 35.556-5.689s22.282-9.482 32.711-17.067l341.333-256c14.222-10.429 25.372-23.704 33.451-39.822 8.038-16.118 12.060-33.185 12.060-51.2v-512c0-31.289-11.133-58.084-33.394-80.384-22.3-22.261-49.095-33.394-80.384-33.394h-284.444v341.333h-113.778v-341.333h-284.444z" glyph-name="small-home" horiz-adv-x="967" unicode=""/><glyph d="M959.949 221.66v-181.053c0.005-12.964-4.905-25.446-13.742-34.934-8.837-9.482-20.941-15.263-33.869-16.169-22.374-1.536-40.653-2.355-54.784-2.355-452.429 0-819.154 366.766-819.154 819.246 0 14.132 0.768 32.411 2.355 54.787 0.907 12.932 6.685 25.037 16.168 33.875s21.965 13.749 34.927 13.743h181.033c6.35 0.006 12.476-2.348 17.188-6.606s7.672-10.116 8.308-16.435c1.178-11.777 2.253-21.147 3.276-28.264 10.175-71.014 31.026-140.082 61.847-204.862 4.863-10.241 1.69-22.478-7.526-29.032l-110.483-78.955c67.552-157.42 192.99-282.87 350.393-350.433l78.843 110.29c3.226 4.511 7.926 7.741 13.286 9.134s11.039 0.86 16.051-1.5c64.763-30.766 133.806-51.569 204.79-61.701 7.112-1.024 16.481-2.15 28.155-3.277 6.313-0.65 12.155-3.615 16.404-8.325 4.244-4.71 6.595-10.834 6.584-17.172h-0.051z" glyph-name="small-phone" unicode=""/><glyph d="M544.418 704c-31.646 0-62.579-9.384-88.892-26.965s-46.82-42.569-58.93-71.806c-12.11-29.236-15.279-61.407-9.105-92.444s21.412-59.546 43.788-81.924c22.379-22.374 50.884-37.615 81.924-43.785 31.036-6.174 63.206-3.008 92.442 9.105 29.239 12.109 54.225 32.614 71.808 58.927 17.579 26.313 26.965 57.246 26.965 88.892-0.107 42.402-16.998 83.037-46.98 113.021s-70.618 46.874-113.020 46.979zM544.418 448c-18.987 0-37.551 5.632-53.338 16.179s-28.092 25.54-35.358 43.085c-7.266 17.54-9.165 36.843-5.461 55.465s12.847 35.728 26.274 49.154c13.423 13.426 30.532 22.569 49.152 26.273 18.624 3.704 37.926 1.803 55.467-5.463s32.533-19.571 43.085-35.358c10.547-15.787 16.179-34.348 16.179-53.335-0.107-25.429-10.253-49.783-28.237-67.767-17.98-17.98-42.338-28.126-67.763-28.233zM544.418 896c-93.325-0.106-182.796-37.225-248.786-103.215s-103.11-155.461-103.215-248.785c0-125.598 58-258.799 168-384.798 49.446-57.075 104.974-108.582 165.599-153.6 5.453-3.631 11.853-5.568 18.402-5.568 6.545 0 12.949 1.937 18.398 5.568 60.804 44.954 116.471 96.461 165.999 153.6 109.602 125.999 167.603 259.2 167.603 384.798-0.107 93.324-37.227 182.795-103.215 248.785-65.993 65.99-155.465 103.11-248.785 103.215zM544.418 72c-66.001 52.002-288.001 243.2-288.001 472 0 76.382 30.342 149.636 84.353 203.647s127.267 84.353 203.648 84.353c76.382 0 149.636-30.343 203.644-84.353 54.012-54.010 84.356-127.264 84.356-203.647 0-228.8-222.003-419.998-288-472z" glyph-name="small-pin" horiz-adv-x="1067" unicode=""/><glyph d="M838.61 288.215c86.149-86.149 135.491-199.178 140.216-320.215h-39.639c-10.086 233.979-203.566 421.202-439.987 421.202s-429.903-187.223-439.987-421.202h-39.639c4.725 121.037 54.069 234.066 140.215 320.21 52.32 52.321 114.538 91.003 182.385 114.417l35.935 12.396-31.307 21.565c-70.667 48.67-117.002 130.050-117.002 222.012 0 148.53 120.87 269.4 269.4 269.4 148.531 0 269.399-120.87 269.399-269.4 0-91.962-46.331-173.343-116.997-222.012l-31.309-21.565 35.937-12.396c67.845-23.414 130.063-62.095 182.38-114.412zM269.4 658.6c0-126.73 103.072-229.8 229.8-229.8 126.73 0 229.801 103.070 229.801 229.8s-103.071 229.8-229.801 229.8c-126.728 0-229.8-103.070-229.8-229.8z" glyph-name="small-user" unicode=""/><glyph d="M765.769 731.739c-6.678 3.453-13.179 7.238-19.475 11.342-18.302 12.101-35.083 26.358-49.984 42.465-37.32 42.685-51.256 85.985-56.354 116.273h0.174c-4.264 25.189-2.504 41.454-2.197 41.454h-169.903v-656.888c0-8.791 0-17.541-0.354-26.155 0-1.055-0.13-2.023-0.174-3.209 0-0.441 0-0.968-0.133-1.452v-0.394c-1.784-23.564-9.331-46.328-21.979-66.29-12.648-19.959-30.009-36.507-50.555-48.181-21.433-12.195-45.677-18.59-70.333-18.553-79.129 0-143.309 64.534-143.309 144.232 0 79.742 64.181 144.275 143.309 144.275 14.988 0 29.891-2.374 44.134-7.035l0.22 173.025c-43.256 5.582-87.199 2.135-129.056-10.122s-80.717-33.060-114.129-61.092c-29.284-25.432-53.904-55.78-72.753-89.678-7.165-12.35-34.244-62.070-37.497-142.693-2.066-45.717 11.693-93.193 18.243-112.755v-0.441c4.088-11.515 20.090-50.905 46.114-84.095 20.986-26.64 45.781-50.043 73.588-69.455v0.441l0.396-0.441c82.204-55.83 173.421-52.181 173.421-52.181 15.782 0.661 68.664 0 128.714 28.442 66.597 31.564 104.491 78.556 104.491 78.556 24.225 28.086 43.492 60.090 56.972 94.646 15.385 40.442 20.486 88.886 20.486 108.227v348.557c2.064-1.232 29.541-19.388 29.541-19.388s39.564-25.364 101.236-41.851c44.224-11.736 103.877-14.243 103.877-14.243v168.674c-20.88-2.286-63.302 4.308-106.778 25.936l0.047 0.044z" glyph-name="tiktok" horiz-adv-x="900" unicode=""/><glyph d="M498.384 946.333c-274.808 0-498.384-223.576-498.384-498.382 0-274.788 223.576-498.384 498.384-498.384 274.788 0 498.384 223.596 498.384 498.384 0 274.806-223.556 498.382-498.384 498.382zM720.714 562.017c0.222-4.938 0.341-9.916 0.341-14.896 0-151.586-115.351-326.32-326.4-326.32-64.782 0-125.088 18.933-175.837 51.493 8.973-1.064 18.108-1.604 27.362-1.604 53.761 0 103.206 18.347 142.473 49.104-50.187 0.922-92.567 34.085-107.161 79.676 6.986-1.323 14.193-2.068 21.561-2.068 10.459 0 20.617 1.365 30.234 3.996-52.477 10.519-92.004 56.872-92.004 112.481 0 0.481 0 0.984 0.020 1.445 15.458-8.573 33.144-13.753 51.935-14.333-30.756 20.537-51.011 55.669-51.011 95.457 0 21.038 5.641 40.752 15.518 57.694 56.551-69.419 141.107-115.069 236.425-119.888-1.968 8.411-2.953 17.146-2.953 26.158 0 63.337 51.354 114.711 114.688 114.711 33.004 0 62.777-13.932 83.735-36.215 26.158 5.137 50.648 14.655 72.872 27.844-8.633-26.8-26.761-49.266-50.509-63.479 23.228 2.77 45.389 8.914 65.886 18.048-15.297-22.966-34.751-43.182-57.173-59.301v0z" glyph-name="twitter" unicode=""/><glyph d="M785.371 309.932c68.915-68.919 108.388-159.343 112.169-256.172h-31.711c-8.065 187.183-162.853 336.962-351.99 336.962s-343.921-149.778-351.989-336.962h-31.711c3.78 96.829 43.255 187.253 112.172 256.168 41.856 41.857 91.631 72.802 145.908 91.533l28.75 9.916-25.047 17.252c-56.534 38.937-93.601 104.038-93.601 177.61 0 118.824 96.696 215.52 215.519 215.52 118.825 0 215.519-96.696 215.519-215.52 0-73.572-37.065-138.673-93.598-177.61l-25.047-17.252 28.75-9.916c54.276-18.731 104.051-49.676 145.908-91.529zM330 606.24c0-101.383 82.459-183.84 183.839-183.84 101.384 0 183.841 82.457 183.841 183.84s-82.457 183.84-183.841 183.84c-101.38 0-183.839-82.456-183.839-183.84z" glyph-name="user_light" unicode=""/><glyph d="M750.076 514.427c0 83.935-33.341 164.432-92.691 223.782s-139.848 92.692-223.782 92.692c-83.933 0-164.429-33.342-223.779-92.692s-92.692-139.846-92.692-223.782c0-83.93 33.343-164.428 92.692-223.778s139.846-92.691 223.779-92.691c83.934 0 164.432 33.341 223.782 92.691s92.691 139.848 92.691 223.778zM692.395 181.005c-84.806-65.839-191.518-96.886-298.409-86.812-106.889 10.069-205.924 60.496-276.942 141.016s-108.68 185.079-105.318 292.39c3.361 107.313 47.493 209.31 123.411 285.228s177.914 120.050 285.227 123.411c107.311 3.361 211.869-34.3 292.39-105.318s130.947-170.053 141.020-276.943c10.069-106.89-20.977-213.603-86.816-298.409l213.845-213.842c5.181-4.832 9.341-10.653 12.224-17.127 2.882-6.47 4.434-13.456 4.559-20.541s-1.179-14.12-3.831-20.689c-2.655-6.569-6.603-12.538-11.613-17.548s-10.98-8.958-17.548-11.609c-6.569-2.655-13.604-3.959-20.689-3.834s-14.071 1.676-20.541 4.559c-6.47 2.886-12.296 7.043-17.127 12.224l-213.842 213.845z" glyph-name="user" unicode=""/><glyph d="M963.765 448c0-249.504-202.261-451.765-451.765-451.765v-60.235c282.769 0 512 229.231 512 512h-60.235zM512 899.765c249.504 0 451.765-202.262 451.765-451.765h60.235c0 282.77-229.231 512-512 512v-60.235zM60.235 448c0 249.503 202.262 451.765 451.765 451.765v60.235c-282.77 0-512-229.23-512-512h60.235zM512-3.765c-249.503 0-451.765 202.261-451.765 451.765h-60.235c0-282.769 229.23-512 512-512v60.235zM642.509 448c0-72.078-58.431-130.509-130.509-130.509v-60.235c105.346 0 190.744 85.399 190.744 190.744h-60.235zM512 578.509c72.078 0 130.509-58.431 130.509-130.509h60.235c0 105.346-85.399 190.744-190.744 190.744v-60.235zM381.491 448c0 72.078 58.431 130.509 130.509 130.509v60.235c-105.346 0-190.744-85.399-190.744-190.744h60.235zM512 317.491c-72.078 0-130.509 58.431-130.509 130.509h-60.235c0-105.346 85.399-190.744 190.744-190.744v60.235zM992.708 378.476c-0.075-1.292-0.367-2.355-0.732-3.647-0.22-0.608-0.44-1.367-0.657-2.28l-1.244-4.864-4.165 2.584c-23.465 14.592-49.778 21.278-75.291 27.738-6.286 1.596-12.643 3.268-18.932 4.939-51.387 14.134-80.625 56.082-78.213 112.318 0.292 7.749 0.876 15.502 1.464 23.254 1.753 23.555 3.581 47.95-2.12 71.355-19.592 81.388-68.198 132.911-144.366 153.277-5.481 1.444-11.038 2.811-16.592 4.179-8.186 1.976-16.739 3.952-25.001 6.459-47.438 14.287-76.092 55.095-74.629 106.465 0.145 5.471 0.657 10.867 1.096 16.339 0.512 6.383 1.096 12.919 1.096 19.302 0 4.18 0.437 8.815 3.509 11.627 3.069 2.812 7.526 2.584 11.839 1.976 78.8-11.247 148.899-39.136 208.324-82.832 153.94-113.228 226.159-270.837 214.612-468.189z" glyph-name="white-donut" unicode=""/><glyph d="M12.8 448.338c0 281.854 230.484 511.662 512.338 511.662 282.529 0 511.66-229.808 511.66-513.014 0-282.529-229.806-511.66-513.011-510.984-281.854 0-510.986 229.806-510.986 512.335zM56.734 444.283c0-18.926 1.352-40.553 4.731-62.858 44.61-306.186 364.99-486.653 648.871-362.962 145.318 63.534 235.215 175.060 272.389 329.165 2.028 8.788 0.676 14.871-6.758 20.278-16.223 12.844-33.795 20.954-53.396 25.684-16.899 4.055-34.47 7.437-50.693 13.519-48.666 17.572-77.729 53.396-88.543 104.090-5.409 26.36 0.676 52.721 0.676 79.081 0.676 62.182-37.852 114.228-97.331 131.125-16.899 4.731-33.795 8.111-50.693 12.842-51.369 16.222-81.784 51.369-93.276 103.414-4.731 20.953-2.703 42.582 0 63.535 2.028 12.842-2.703 16.222-14.193 15.546-18.926-1.352-37.176-1.352-56.1-3.379-236.568-27.036-416.359-227.782-415.683-469.080zM984.077 416.571c0.676 2.028 1.352 3.379 1.352 4.731 10.816 174.385-54.748 312.945-197.363 413.656-56.776 40.554-121.664 63.535-191.283 72.998-8.11 1.352-10.138-0.676-10.138-8.787 0-10.815-1.352-20.953-2.028-31.768-1.352-43.934 24.333-79.081 66.916-91.247 12.841-3.379 25.684-6.083 38.525-9.463 72.998-18.926 117.609-66.239 135.857-138.562 6.761-28.388 2.028-56.776 0.676-85.164-2.028-47.99 23.657-84.488 69.619-96.655 29.74-8.11 60.831-13.517 87.867-29.74zM526.518 509.199c25.098 0 45.445-20.447 45.445-45.67v-289.252c0-25.221-20.347-45.67-45.445-45.67-25.096 0-45.443 20.449-45.443 45.67v289.252c0 25.224 20.347 45.67 45.443 45.67zM526.513 662.6c26.132 0 47.314-19.553 47.314-43.674v-7.278c0-24.12-21.181-43.676-47.314-43.676-26.13 0-47.314 19.556-47.314 43.676v7.278c0 24.12 21.184 43.674 47.314 43.674z" glyph-name="white" horiz-adv-x="1050" unicode=""/><glyph d="M511.915 938.632c-208.583-0.144-378.599-169.872-378.599-378.601 0-250.159 351.736-565.752 366.744-581.039l12-12.288 12.145 12.288c14.855 15.287 366.312 347.736 366.312 581.039 0 208.729-169.872 378.457-378.601 378.601z" unicode=""/><glyph d="M512.065-64l-27.376 28.016c-0.849 0.864-2.928 2.816-6.056 5.776-110.248 104.192-366.672 370.28-366.672 590.208 0 220.495 179.456 399.944 400.031 400 220.576-0.056 400.032-179.505 400.032-400 0-208.272-257.536-483.224-368.272-591.768l-31.687-32.232zM511.992 917.136c-196.935-0.056-357.167-160.264-357.167-357.136 0-203.248 247.032-458.681 353.248-559.064 1.552-1.465 2.873-2.72 3.976-3.769 0.52 0.504 1.089 1.064 1.704 1.672 83.375 81.729 355.407 363.736 355.407 561.16 0 196.872-160.224 357.080-357.169 357.136zM510.513 275.816c-157.552 0-285.736 128.193-285.736 285.753s128.185 285.752 285.736 285.752c157.56 0 285.736-128.192 285.736-285.752s-128.177-285.753-285.736-285.753zM510.513 818.737c-141.8 0-257.16-115.368-257.16-257.176s115.36-257.176 257.16-257.176c141.792 0 257.16 115.368 257.16 257.176s-115.368 257.176-257.16 257.176z" unicode=""/><glyph d="M511.448 833.053c-149.728 0-271.448-121.72-271.448-271.448s121.72-271.448 271.448-271.448c149.729 0 271.449 121.72 271.449 271.448s-121.728 271.448-271.449 271.448z" unicode=""/><glyph d="M224 560.342c0 158.29 129.555 287.658 288.115 287.658 158.863 0 287.885-129.33 287.885-288.57 0-158.936-129.25-287.582-288.722-287.43-158.522 0.152-287.278 129.368-287.278 288.342zM248.672 557.91c0.152-10.489 0.874-22.917 2.661-35.231 24.937-172.161 205.242-273.558 364.979-204.237 81.885 35.534 132.178 98.584 153.277 185.158 1.217 5.055 0.228 8.285-3.992 11.554-9.085 7.031-19.197 11.591-30.184 14.442-9.503 2.47-19.235 4.18-28.435 7.486-27.485 9.958-43.641 29.948-49.609 58.338-3.118 14.783 0.418 29.567 0.493 44.389 0.229 34.926-21.364 64.115-54.854 73.692-9.429 2.697-19.122 4.409-28.474 7.335-28.815 9.045-45.998 29.074-52.612 58.147-2.661 11.781-1.482 23.905 0.115 35.762 1.025 7.411-1.369 9.007-8.135 8.627-10.492-0.57-21.023-0.608-31.515-1.787-133.014-15.049-233.942-128-233.715-263.676zM770.463 542.518c0.342 1.292 0.608 1.938 0.645 2.547 5.969 97.938-30.716 175.81-110.851 232.513-32.085 22.727-68.426 35.724-107.467 41.083-4.562 0.647-5.854-0.418-5.854-4.902 0-5.967-0.951-11.934-1.141-17.901-0.722-24.74 13.61-44.465 37.445-51.344 7.109-2.052 14.407-3.459 21.555-5.321 41.208-10.602 66.222-37.206 76.447-78.023 3.953-15.848 1.102-31.923 0.38-47.885-1.217-27.174 13.192-47.355 39.269-54.233 16.803-4.409 34.024-7.335 49.496-16.57l0.077 0.038z" unicode=""/><glyph d="M248.669 557.891c-0.19 135.64 100.702 248.589 233.678 263.64 10.492 1.178 21.022 1.178 31.514 1.785 6.766 0.38 9.162-1.215 8.135-8.627-1.634-11.819-2.813-23.98-0.115-35.762 6.614-29.074 23.797-49.102 52.612-58.147 9.352-2.926 19.046-4.636 28.474-7.335 33.49-9.615 55.083-38.803 54.855-73.692-0.077-14.783-3.612-29.568-0.494-44.389 5.969-28.39 22.163-48.38 49.609-58.337 9.162-3.306 18.932-5.055 28.436-7.487 10.985-2.851 21.097-7.411 30.184-14.442 4.219-3.267 5.245-6.498 3.991-11.552-21.098-86.575-71.392-149.663-153.275-185.159-159.739-69.283-340.042 32.113-364.981 204.237-1.787 12.314-2.509 24.742-2.661 35.231l0.038 0.038zM397.383 560.361c-0.115-63.619 50.902-115.23 114.006-115.344 63.713-0.152 115.603 51.306 115.68 114.623 0.075 63.163-51.472 114.887-114.578 114.964-63.484 0.075-114.994-51.041-115.108-114.243z" unicode=""/><glyph d="M397.382 560.389c0.113 63.202 51.624 114.317 115.108 114.242 63.104-0.075 114.653-51.801 114.576-114.964-0.075-63.355-51.965-114.774-115.678-114.622-63.105 0.152-114.121 51.762-114.006 115.344zM602.319 560.123c-0.228 49.939-41.056 90.338-90.818 89.958-49.609-0.381-89.638-40.856-89.525-90.489 0.115-49.824 40.98-90.338 90.78-89.958 49.533 0.38 89.828 41.084 89.6 90.489h-0.038z" unicode=""/><glyph d="M502.937-60.939c-276.689 0-502.531 229.232-502.531 510.846 0 280.852 225.842 510.092 502.531 510.092 277.442 0 502.53-229.24 502.53-510.092 0.747-281.614-225.088-510.846-502.53-510.846zM502.937 679.148c-124.14 0-225.842-103.239-225.842-229.24 0-126.009 101.702-229.241 225.842-229.241 124.135 0 225.842 103.232 225.842 229.241 0 126.001-100.955 229.24-225.842 229.24z" glyph-name="yellow-round" horiz-adv-x="1008" unicode=""/><glyph d="M779.198 960l-272.626-276.728-272.372 276.47-230.851-234.325 272.372-276.47-272.641-276.743 230.851-234.326 272.641 276.743 272.599-276.694 230.849 234.321-272.598 276.699 272.625 276.728-230.849 234.325z" glyph-name="yellow-x" horiz-adv-x="1013" unicode=""/><glyph d="M-0.033 448.858c0 281.404 230.319 511.392 512.203 511.392 282.424 0 511.796-229.92 511.796-513.014 0-282.552-229.777-511.253-513.283-510.989-281.816 0.273-510.716 229.99-510.716 512.611zM43.827 444.534c0.27-18.647 1.554-40.741 4.731-62.631 44.333-306.067 364.874-486.325 648.853-363.087 145.571 63.172 234.983 175.258 272.487 329.169 2.167 8.986 0.41 14.729-7.091 20.54-16.154 12.499-34.133 20.607-53.666 25.674-16.887 4.391-34.193 7.432-50.551 13.31-48.858 17.702-77.58 53.24-88.19 103.711-5.542 26.282 0.743 52.564 0.879 78.915 0.405 62.091-37.981 113.981-97.521 131.006-16.76 4.797-33.994 7.838-50.619 13.040-51.227 16.080-81.774 51.686-93.534 103.373-4.73 20.945-2.635 42.498 0.203 63.578 1.824 13.175-2.433 16.013-14.462 15.337-18.653-1.014-37.373-1.081-56.026-3.176-236.469-26.755-415.899-227.555-415.493-468.759zM971.452 417.171c0.614 2.297 1.084 3.446 1.152 4.527 10.607 174.112-54.605 312.55-197.068 413.356-57.039 40.403-121.647 63.51-191.054 73.037-8.11 1.149-10.408-0.743-10.408-8.716 0-10.608-1.69-21.215-2.027-31.822-1.284-43.984 24.194-79.050 66.568-91.279 12.638-3.648 25.614-6.148 38.319-9.458 73.259-18.851 117.728-66.145 135.907-138.709 7.029-28.175 1.96-56.753 0.676-85.13-2.162-48.309 23.451-84.185 69.811-96.414 29.875-7.838 60.484-13.040 87.996-29.458l0.128 0.067z" unicode=""/><glyph d="M971.708 424.883c-0.060-1.143-0.333-2.084-0.666-3.226-0.205-0.538-0.41-1.21-0.606-2.017l-1.143-4.303-3.831 2.286c-21.564 12.908-45.747 18.824-69.188 24.538-5.777 1.412-11.622 2.891-17.399 4.37-47.222 12.505-74.092 49.616-71.875 99.366 0.268 6.857 0.806 13.715 1.343 20.572 1.612 20.841 3.291 42.422-1.948 63.129-18.003 72.003-62.674 117.585-132.67 135.603-5.038 1.277-10.144 2.487-15.249 3.697-7.523 1.748-15.383 3.496-22.973 5.714-43.597 12.64-69.929 48.742-68.586 94.189 0.135 4.841 0.605 9.614 1.008 14.455 0.47 5.647 1.008 11.429 1.008 17.076 0 3.698 0.403 7.799 3.225 10.286s6.919 2.286 10.882 1.748c72.415-9.95 136.835-34.623 191.449-73.281 141.473-100.172 207.837-239.607 197.222-414.204z" unicode=""/><glyph d="M47.601 444.737c-0.337 240.968 178.695 441.628 414.661 468.364 18.619 2.093 37.304 2.093 55.922 3.173 12.007 0.675 16.258-2.161 14.436-15.326-2.9-20.998-4.992-42.603-0.202-63.533 11.738-51.651 42.228-87.232 93.361-103.301 16.594-5.199 33.796-8.237 50.525-13.031 59.43-17.081 97.746-68.934 97.341-130.915-0.135-26.264-6.409-52.528-0.877-78.86 10.592-50.435 39.328-85.949 88.032-103.638 16.256-5.873 33.596-8.98 50.458-13.301 19.499-5.064 37.444-13.165 53.564-25.656 7.484-5.806 9.31-11.546 7.083-20.525-37.436-153.803-126.686-265.883-271.989-328.945-283.457-123.085-603.407 57.054-647.66 362.838-3.17 21.875-4.452 43.953-4.722 62.589l0.067 0.067z" unicode=""/><glyph d="M769.725 454.11c15.072-8.254 15.072-29.904 0-38.158l-378.673-207.353c-14.496-7.937-32.199 2.552-32.199 19.079v414.705c0 16.527 17.703 27.017 32.199 19.079l378.673-207.352z" unicode=""/></font>
</defs>
</svg>
